/* XPM */
static char *_618937615850[] = {
/* columns rows colors chars-per-pixel */
"64 64 256 2 ",
"   c #101112",
".  c #2C1815",
"X  c #162D12",
"o  c #332C18",
"O  c #0F1730",
"+  c #281A28",
"@  c #271C39",
"#  c #172636",
"$  c #152A2D",
"%  c #2A2628",
"&  c #362928",
"*  c #262838",
"=  c #372835",
"-  c #3A3639",
";  c #2D3630",
":  c #48301C",
">  c #442C37",
",  c #463837",
"<  c #553A39",
"1  c #4A322B",
"2  c #6F392F",
"3  c #511F13",
"4  c #344812",
"5  c #324634",
"6  c #59453A",
"7  c #4A4C31",
"8  c #754934",
"9  c #55682C",
"0  c #5C661D",
"q  c #151C4B",
"w  c #172B55",
"e  c #1B3459",
"r  c #112C4C",
"t  c #252A45",
"y  c #28364A",
"u  c #363548",
"i  c #273657",
"p  c #373A57",
"a  c #2F294F",
"s  c #143564",
"d  c #193A68",
"f  c #152E6C",
"g  c #263865",
"h  c #263874",
"j  c #2D356A",
"k  c #281E41",
"l  c #473A48",
"z  c #503B48",
"x  c #533E65",
"c  c #384557",
"v  c #33474D",
"b  c #284367",
"n  c #34476F",
"m  c #1A4266",
"M  c #474748",
"N  c #584747",
"B  c #5A5247",
"V  c #474857",
"C  c #574955",
"Z  c #46555A",
"A  c #59545A",
"S  c #49554B",
"D  c #654A46",
"F  c #685649",
"G  c #775A48",
"H  c #675756",
"J  c #744F51",
"K  c #746857",
"L  c #4F516E",
"P  c #635966",
"I  c #6A5D6D",
"U  c #5D6772",
"Y  c #796765",
"T  c #6F6B77",
"R  c #546951",
"E  c #8A3D2A",
"W  c #863513",
"Q  c #86442C",
"!  c #96472C",
"~  c #884A37",
"^  c #984B37",
"/  c #86543B",
"(  c #98533C",
")  c #88542F",
"_  c #A8553A",
"`  c #B35537",
"'  c #A94E2C",
"]  c #9F6037",
"[  c #DB662C",
"{  c #885747",
"}  c #9A5746",
"|  c #885C59",
" . c #975B55",
".. c #A65947",
"X. c #A65B52",
"o. c #896758",
"O. c #98675A",
"+. c #8E6953",
"@. c #A6634B",
"#. c #B56648",
"$. c #A86657",
"%. c #BA7655",
"&. c #AC7154",
"*. c #866866",
"=. c #9A6966",
"-. c #9A7866",
";. c #987975",
":. c #8C7272",
">. c #A66B68",
",. c #A8766A",
"<. c #B6776A",
"1. c #AA7876",
"2. c #B57B78",
"3. c #AB6D71",
"4. c #985E66",
"5. c #C77859",
"6. c #D67959",
"7. c #CA6C4E",
"8. c #CA7967",
"9. c #D2796A",
"0. c #E47B5C",
"q. c #6E843A",
"w. c #738651",
"e. c #7D9567",
"r. c #C9DB1B",
"t. c #CBD73A",
"y. c #DAE83A",
"u. c #E2F229",
"i. c #8B944C",
"p. c #A9B44F",
"a. c #918971",
"s. c #A78777",
"d. c #B9847A",
"f. c #AF8A6F",
"g. c #9EA963",
"h. c #D58568",
"j. c #C6877A",
"k. c #D68878",
"l. c #CA896F",
"z. c #E88971",
"x. c #D88C5B",
"c. c #B5C96F",
"v. c #D3D757",
"b. c #CED34E",
"n. c #DAE747",
"m. c #DAE756",
"M. c #CFE05C",
"N. c #E5F150",
"B. c #D2D76A",
"V. c #D9E567",
"C. c #D8E776",
"Z. c #D7EC6D",
"A. c #E4ED71",
"S. c #9FAF19",
"D. c #262F81",
"F. c #354A82",
"G. c #534E84",
"H. c #566C85",
"J. c #6E748A",
"K. c #463A86",
"L. c #917B86",
"P. c #AD7C82",
"I. c #CB7B82",
"U. c #778491",
"Y. c #7791AC",
"T. c #998584",
"R. c #918F91",
"E. c #A88886",
"W. c #B98685",
"Q. c #A8958A",
"!. c #B89688",
"~. c #B89996",
"^. c #AA9497",
"/. c #B5A495",
"(. c #8C95AC",
"). c #A59CA6",
"_. c #AF99AC",
"`. c #96A7B5",
"'. c #B9A7A5",
"]. c #B8B6B7",
"[. c #ACADB1",
"{. c #C48A86",
"}. c #C8948B",
"|. c #D5978B",
" X c #CC9493",
".X c #CA9B98",
"XX c #D59C98",
"oX c #CE8C8C",
"OX c #E69896",
"+X c #C9A799",
"@X c #D7A699",
"#X c #CFAE95",
"$X c #E5A899",
"%X c #E6B39B",
"&X c #EAB093",
"*X c #D89AA4",
"=X c #E59CA8",
"-X c #C7A8A5",
";X c #D9A9A6",
":X c #CAB4AA",
">X c #D9B5AA",
",X c #C9B6B8",
"<X c #D9B7B5",
"1X c #D8ABB5",
"2X c #E3ADA3",
"3X c #E8ABA8",
"4X c #E4B3A5",
"5X c #EAB3A6",
"6X c #EBB4AA",
"7X c #EBBBAD",
"8X c #E5B8AB",
"9X c #F4B6AC",
"0X c #E7AAB3",
"qX c #E8B8B6",
"wX c #F5B9B6",
"eX c #F2AEAF",
"rX c #B9D49A",
"tX c #C6D78A",
"yX c #D7E78C",
"uX c #E7F587",
"iX c #E6E991",
"pX c #D2C7B4",
"aX c #E8C5B8",
"sX c #F6C4B8",
"dX c #EFC9B3",
"fX c #CEECA8",
"gX c #F0F6AD",
"hX c #95AAC9",
"jX c #A8B8C6",
"kX c #B5B6CB",
"lX c #CBBAC5",
"zX c #F6BAC2",
"xX c #CBBFE3",
"cX c #BAC2C9",
"vX c #BAC6D5",
"bX c #B9D3E6",
"nX c #D8C8C9",
"mX c #CDCCD3",
"MX c #E6C8C5",
"NX c #F9C9C9",
"BX c #E8D5D9",
"VX c #F3D6CE",
"CX c #F4E3D6",
"ZX c #CFD9E6",
"AX c #E8DAE2",
"SX c #D9EBF7",
"DX c #E7E7E9",
"FX c #FAE9E7",
"GX c #E9F4ED",
"HX c #FCF5EA",
"JX c #EAECF5",
"KX c #F8EDF6",
"LX c #E7F6F9",
"PX c #FEFCFE",
"IX c #F9F7F8",
"UX c #DFE0D8",
/* pixels */
"mXSXZXnX,X^.B X : : o o : 6 6 6 *.N F H 6 1 7 6 0 0 i.V.B.b.b.t.t.v.v.b.v.v.b.C.v.B.b.b.b.b.b.t.r.r.y.n.v.B.B.B.b.b.y.t.b.V.v.p.",
"vXvXZXGXZXe.5 1 : o : : 7 6 F 6 6 K 1 : -.a.+.,.i.) p.A.A.N.N.b.v.V.m.A.A.B.B.B.C.C.B.C.B.C.A.Z.N.u.n.v.B.B.v.b.n.n.n.b.n.v.b.p.",
"mXvXcX].a.&   1 o : 7 7 D G G D G K 2 : g.dXiXB.iXB.v.A.b.b.m.A.A.V.Z.uXyXC.iXiXC.C.uXuXuXC.Z.Z.M.v.V.C.uXuXA.m.n.N.N.n.m.V.B.p.",
"cXDXmXY - o o 7 o 7 6 8 F K G 6 G : 4 7 0 c.gXb.A.V.v.V.Z.A.A.A.yXg.i.w.9 0 9 9 9 9 9 9 q.i.g.p.yXiXiXyXB.M.Z.N.y.y.u.y.m.Z.B.B.",
"A ).).M & 7 5 o 7 6 F F F F D 6 J + 6 9 o q.Z.M.v.v.Z.C.iXtXi.q.R 5 $ ;   $ ; $ $ $       X $ ; 9 K g.fXyXyXZ.m.y.y.y.y.n.A.A.iX",
"% S M - - & & o 6 F G F F F 6 D x I C 7 0 0 q.Z.V.uXuXc.i.9 o   X r c U Y.hXjX(.hXY.Y.Y.H.L v y     o 9 a.tXyXZ.m.n.y.n.m.m.A.B.",
"C N > & , , , F H K K D 6 8 8 C a G.V 5 7 4 4 p.B.yXc.9 5 $ r L e U Y.`.SXIXSXvXvXvXbXZXbXbXjX[.`.U.5     4 i.Z.V.M.N.N.N.v.n.v.",
", z & & , 7 6 B F H F < 1 < < z G.K.G.P 7 4 0 0 gXrXR X y n f f r U.Y.`.SXLXbXhXvX`.Y.U U U.`.jXjXvXmX(.5 X X 4 tXB.B.A.N.n.y.y.",
"& :.T.Y . B H B B B 6 1 ~.+X*.> K.K.x V V 7 X 0 rXe.5 $ g D.D.D.c [.kX[.JXJXkXkXcXU.T U.J.R.lX`.[.jXcXY.Y.Z ; $ ; w.fXC.v.N.r.u.",
"!.<XMX'.T.Y K Y N B N N >XpX~.*.L G.G.V 5 7 9 rXfXw.X $ b f D.D.q R.).`.JXJXlXkXI A L.R.J.(.xXkX[.jXcX`.`.L m m y 5 e.tXA.N.r.u.",
"1X<XzX'.:XB , N N N 6 F <XMX0X'.z p C 5 5 K c.gXrX4 X 5 v s f f G._.kXxXKXJXkX`.T G.(._.(._.xXxXrXjXcX`.hXF.f D.h O ; i.A.N.r.r.",
"+X;X>X,XMX*., N N N N D <XqX<X>XP 7 M S i.rXrXfXe.4 X 5 r r m w J.hX_.kXAXmX).R.T P T J.J._.kXkXcX`.cXhXhXn f D.D.s r 5 i.A.N.r.",
"2.qX>XaXMX'.H N B C z D -X<XqXqX:.5 7 B K a.a.R R X v v $ e n r L R.).].nXUXpXpXpX).R.Q.[.].lX].].[.cX`.`.b s D.f F.e $ 4 c.A.t.",
"{ 0X>X<X-XpXI , N N < < .X<XqX<XQ.7 7 5 5 5 5 $ $ $ v m r e b r x I T T.R.R.R.R.)./.'.[.[.].kXmXvXvXmX`.`.b s d f f e y 4 w.C.Z.",
"2 }.wXqX,XMX^.z z N < 1 !.<XqX>X<XA C L u c L j q s m m w f h g q k k p ; t # *   # a p L U J.J.(.`.`.U.U.m r s f f s c X 5 rXyX",
": *.zX:XzX<X-XH N H N = E.<XaX;XnXl = l t a a q j g e s g w w n L n L G.J.T U I U U l u u a k k @ M U v Z $ e m D.f m m $ 5 rXfX",
"l - nX@XzXeX0XW., H 7 , Y MX@X4XzXT   l k a i t * l + , T L._.nXmX/.:.Q.,XpXpXVX'.aXMX<X-X-X^.s.D - . X ; M v w h f f n # 5 rXfX",
"v M ^.<XeXwX3X.X6 A v M K aX2X2XNXL.+ l t t * * + H Y /.VXMXnX,X:XdXpX-.o.#XdX>X>XaX8X#X4XsX7X+Xs.*.K K S     j j j h j $ R fXfX",
"v Z H qX3XwXeXqXH M v S A <XaX2XaX^.> C y * * * % T.+XaXqX-X:X1X>XpX>X!.s.s.+X#X#X>X4X@X+X@Xd.-.;.!.pXpX:Xa.P a a j j p O 5 e.w.",
"Z R - <X3XeXqXzX:., M A 6 :XaX@XaX~.z A u * * M B ~.>X>X;X@XNXNXVX}.}.sXaXf.O.d..X4X8X@Xs.O.,.f.>XpX>X#X>XnX].T.x a k j # X $ X ",
"Z V > ^.qX;XqXqX^.z M A , -XsX;XqX+XN A V u - P ^.+X+X>XsXwX0X>.3 3 3 8 ,.!. X@X4X7X8X#Xd.d.>XVXCXqX;X>XqX:X>XnX).I u p v X ; X ",
"c V z *.0X1XqX1X,XP V A , '.qX>X<X+X6 C V M c T.Q..X|.6X6X$X X~ |.$X#X<.$.d.@X@XdX%X;X%X@X}.j.+X .| | 1.#XaXpX:XlX,XH + + % 7 ; ",
"v S A N .XqX1X1XzXT N C z ~.>X8X8X-X< M S C A /.K s.k.sX3XOXNXwX9XwX9X5X|.j.@XsX5X%X4XsX>Xf.+.J J | 2 3 / @XdX#XqXMXP.N = + - = ",
"v V A , P.VX1X<XBXL.z C N ~.>XaX7X:X, < A A P [.o.,.|.sXOX|.eXOX<.oX$X9X9X9X9X3X6X5X7X7X@X,.,.{.eXzXzX=X}.l.k.dX@X8X-X'.;.> % l ",
"V M H H J NX<X1X,XlXD z z }.MX@X7X!.6 6 H = _.^.*.O.$X&X$.#.oXI.8.8.|.eX9X$XeX9X5X5X4X7X7X7X7XsX0XeXeXwX9X&X&X&X&X#Xf.#X/.H + a ",
"P u % > 6 >X<XqXzXlXD > < E.wXqX>X+X6 N A - R.Q.1.O.j.|.$.X.9.3.3.I.OX$X9X5X%X9X5X5X5X4X4X4X4X8X0XeX=XI.|.eX&XOX&X&Xf.f.E.C @ = ",
"C > & . 1 .X>X<XzX1XP.P.3..XaX4X@X;XD z C N T L.!.>.j.&Xk.j.{.<.j.|.3X5X9X9X9X5X6X6X6X6X6X4X4X4XeXwXXX3.3.oXoX%.&Xk.f.G W.C > a ",
"> z 1 . o f.aX;X1X0X=X=XqXqX%X@X4X2XJ 6 z C C L.E.>.j.sX9XOXOX XXX3X9X5X5XwX9X3X5X5X4X4X5X5X4X5X5X6XOX3.X.<.4.} l.f.f.G ,XJ k l ",
"N , & . 6 f.aX4X0X0X0X=XzX=X%X5X7X>X| z z P l L.s.*.<.%X5XXXXXeX%X8XdX2X4X7X6X@X@X@X%X$X%X2X4X%X%X%X@X XI.P.P.I.}.&.f.+.<XN u x ",
"J 1 1 -.#Xj.dX%XzX=XzX=XeXeX%X9X6XXXP.z l A l ^.~.W.d.@X$X$X3XsX8X7X8X4X8X7X7X%X2X2X2X5X5X6X9X7X5X%X5X0X*XI.=XzX|.$.i.-.Q.l l L ",
"J J P.pXCXj.dX@XzX=XzX=XeXeX$X$XXXW.1XJ @ z P ,X-X+X X@X7X6X2XqX8X#X#X>X8X>X8X8X4X5X5X5X6X6X6X6X&X%X7XwX=X*X=XwX{.,.f.-.F 6 V V ",
"J -XVX-Xf.a.dXdXzX=XzXI.=XeXeX&XoX1.NXI + = I BXT.!.}.#XwXqX}.E.-X!.W./.+X+X+X>X-X;X;X@X;X;X@X#Xf.#X>X0X0XlX*X X=.,.E.a., M U p ",
"2.;X4X;X;X}.W.2X0X0XXXI.wX0X0X X>.XXqX^.+ O V mX).;.1.CX@X{.@XqXP.,XBXBXnXnXBX].].:X,XlXqX1X1X1X-XK aXs.2X8X8X.X1.L.*.a I x c Z ",
"XXsXsXqX6X Xd. X X X X1.*X XoXP.&.+X<X,XP - p mX,X'.E.-X{.@XsX;XL.DXPXPXIXJXPXPXPXPXPXKXKXKXKXPXPX'.nXQ.#X#X8X+XP.^.L.a L x L c ",
"XX7XwX6XqX3X{.W.{.W.{.3.*X XoXP. X4XaXBX^.V % `.UX:XE.s.+X6XNX!., ,XKXDXKXGXIXLXLXIXJXKXKXKXKXKXPX]./.#X#X#X#Xd.W.1X_.l L Z Z c ",
"{.@X2X2XwXsX@X2. XW.1.=.;X.XW.>.@X4X.X<X'.T   T AX'.;.s.qX8X7X1.H nXmXpXGXIXGXGXDXDXGXLXKXJXAXBXnXa.Y aXpX+Xf.s.~.BX_.x V V Z v ",
"|.XX2X6XwXqX X>. XW.P.4. XP.3.4.d.}.,.E.:X).- C ZXlXQ.:.:X;XwXE.:XPXUXpXUXGXHXIXIXIXIXIXIXJXAXmXnX:.G CXdX#X!./.-XBXlXl V V Z v ",
"@X}.2XwX7X4X X3.>.2.oX3.{.P.{. XW.@XW.!.<XnXN % nXPX,XY ;..XNX>X/.GXHXHXIXDXGXGXGXGXLXLXJXJXJXKXKXQ.a.aX#X#Xf.:X-XBXkXM M M R 7 ",
"2X{.@XwX2XXX*X{.=.3.W.3.XX.XqXzX3XqX>X4XaXMXD . ).PXKX).:.E.-XqXQ.pXUXHXHXFXHXIXKXHXKXKXIXPXPXPXBX~.-X#Xs.tX}./.~.nX[.V A S S v ",
"sX}.XX6X XW. X X{.2.3.=.0X0XwX;XqXqX4XqX@X>XF . T KXPXKX).*.-.>XMX-XE.:XpXpXHXFXKXIXPXPXKXAXmXlXE.P.MX!.a.VX:XQ.).lX).M R v S 7 ",
"2X2X X<.d. XXX{.2.3.P.eXNX;X;XzX>X0X|.@XsXf.-.& - DXPXJXPX'.Y -.+X>XaX1X.X-X-X~.-X-X.X_._.~.'._.MX+Xd.a.s.pX'.e.,XmXR.ZXJ.5 R ; ",
"%X6X;Xd.1.d.W.2.| 2.0XzXeX*X1XzXW.XXXX@Xk.&.+.< = vXIXLXIXnX~.W.-.!.<XqX1X0X1XqX1X1X1X1XlXzXzXNXP.-.s.f.a.s.T.R.mXUXZ J.[.P ; 5 ",
"2X3XXX{.2.2.,. .;X2X3X3XwXNX*X4.=.P.j.k._ @.&.6 % U.SXLXJXPXBX>X| ;.W.-XqXqX0XNX0X0XwXzX0X*XW.1.=.=.d.pXf.a.Q.rXmXvXO i R.T % ; ",
"6X@X{.{. X X3.|  X0XeXXXW..X{.3.P.1.$.$.W 5.f.G ; c bXLXSXPXKXaX.XE.4.=..X;X*X0XwXeXeX3XXXW.>. .,.2.}.#Xa.a.Q.].mXL # c y c Z * ",
"@X}.W.}.@X.Xd.3.=.2.P.P.P.P.P. XW.3.$.%.W x.f.8 - # Y.LXSXIXHXnXFX,XE.:.1.P.2.oXoX{.2.3.<.2.j.{.{.|.f.d.a.a.].].vX# g L O t U % ",
">.>.<.2.2.,.1.{.{.3.3.P.oX{.P.3.P.2.|.h.' 5.%.+.- # n SXLXZXFXaXPXBXnX1XP.;.P.1.2.3.<.2.j.j.j.<.}.}.-.f.s./.UXcXkXw j e w i a t ",
"O.{  .>.1.3.2. XoX.X*X XP.4.3.W.P.P.&X5.7.7.#.-.; y s hXLXmXIXBXIXUXIXHX-X-X*X=.W.{.}.|.|.j.,.+.@.O.8 f././.ZXvX(.e n q n L O p ",
"{. .8 $.}.XX}.}.XX2.>.>.P.*X*X X1XP.k.' x.x.#.-.. n O Y.SXZXPXCXIXnXFXIXBXCXVX*.>. .^ ~ / / ( ) ( } / >XpX'.DXZXJ.O n w j j q V ",
"j.<.} ~ $.d.2.>.<.2.2.{.{.{. X X@Xj.( x.z.` ' j.: l t i vXLXDXIXGXHXCXFXpXHXdXa.|.9.8...) ) _ ` ) @./ #XVXFXcXSXd b m g d i i e ",
"k.<.( ~ $.j.k.j.<.d.{.}. X X}.{.,.@.' 5.x.' #.|.1 + t y U ZXLXGXGXIXFXFXVXHXpX-.9.z.9.%.@.&.7.7._ &.f.dXFXKXmXU.e s e s e e i w ",
"j.&.} ~ } <.j.j.}.}.|.XX|.{.2.1.{ ( ( 6.[ ' 7.j.2   a y r `.LXLXLXGXFXKXCXHXpX&.9.0.6.5.%.x.6.6.x.&.%XHXHXDXSXe r s s s d e e e ",
"$.@.} ^ ( X.&.,.j.j.j.8.<.>. .} } ( #.x.` ' x.l.J   t i O H.ZXSXLXSXFXHXHXHXpX<.9.9.x.5.&.&.6.6.l.f.dXHXKXZXhXe e s s d g d i w ",
"Q ^ ] @.( ^ } @.} } } } } }  .} X.....7.' ` z.j.| + @ y i b U.bXLXSXIXDXHXHX#Xf.OX0.9.6.#.x.6.6.f.f.FXCXPXvXn m s d d d d d i e ",
"3 8 ( ] ../ / @.} ^ } } } } } X.( ( ' _ _ _ k.j.4.= O q c r s Y.bXbXPXUXHXFX!.f.9.0.9.7.%.x.h.h.,./.PXKXPXhXO s d d d s s e i w ",
"! 8 Q ] @.} ] @.X.X.X.X.........E _ E _ ` _ 7.oX3.< + @ i e r m H.Y.LXmXHXFX}.<.9.6.7.7.5.x.h.h.!.CXDXZXkXH.q s m f f s s g i j ",
"] Q 2 Q ( } } ( ^ _ ^ ........^ E _ ! ` #.E X.I.W.> + @ r n m r r H.SXkXKXFX}.<.h.h.6.6.h.h.h.<.~.PX).`.L r m s m D.d g i p p V ",
"{ ) ) 8 8 E ) } } ( ..^ ( _ ^ ! E ' .._ ....X.8.3.J >   t m r m s r s U.mX1X>.@.5.z.' #.z.x.%.| ^.J.p t e d d s F.s w n p @ C ).",
"/ / / ) Q 8 ~ } ( ( ^ ^ E E E E E ' _ .._ ..X.X.8.} <   # m s m s r # # - 8 } h.#.#.W ! #.#...< M i t w s b m g r s i t % z *.^.",
"{ 8 / / ) 8 ~ / Q ~ Q E E E ' ^ ' ..` X.^ ^ X.X.8.{ 2 . O i m d d d m $ + 2 <.z.l.%.' _ 5.k.j.6 # r i d d s s s r i u = > | P.oX",
"G G G G { ~ / / ~ ~ ^ ( .._ ....` ..X.X.........8.^ } 3   * g d s r m y >  .oX7.x.&._ #.8.oXW.- y g b d s e s i e q % < O.2.l.h.",
"G G G +.{ { G /  . .X.X.......' _ ` X.^ ..........' X.2   + e f d e s O = >.OX7.x.) ] #.8.oX:.% b d d d d d h g @ @ < { 8.h.6.[ ",
"K 8 G K o.o.{ { { ~ } X.X...X..._ _ ..X.X.......` ' #.E . @ # e g m m $ > X.I.0.x.&.l.l.I.oXK * i s s s d d d w   H E.d.8.z.x.[ ",
"K F F K *.+.{ | 2 ~ 2 ^ ^ X.X.#..._ } X.X.X...` ' ' ` ^ 8 - O e q d w # 2 X.0.7.5.@.8.8.I.2., y d s s s d d g p l L.!.h.0.0.[ [ ",
"F F G K o.*.|  . .{ ~ E E E ^ _ ` ^ X.^ X.X.` ` ` ' ' ..=.l   w f n q q 4.I.0.7.%.&.8.9.I.>.% m d s s s f n L G.L.I ] x.0.[ [ [ "
};
