/* XPM */
static char *_618937498940[] = {
/* columns rows colors chars-per-pixel */
"64 64 254 2 ",
"   c #050101",
".  c #0C0101",
"X  c #0D0B0B",
"o  c #090906",
"O  c #130201",
"+  c #130B06",
"@  c #140C0B",
"#  c #1B0D0C",
"$  c #190705",
"%  c #0D140B",
"&  c #14130E",
"*  c #1B120D",
"=  c #15190D",
"-  c #0E0D13",
";  c #020D1D",
":  c #050815",
">  c #130D13",
",  c #1C0D12",
"<  c #190D19",
"1  c #0D131C",
"2  c #0C1616",
"3  c #141214",
"4  c #1B1313",
"5  c #14141A",
"6  c #1B151B",
"7  c #15191C",
"8  c #1B1A1C",
"9  c #171A14",
"0  c #230C07",
"q  c #27120A",
"w  c #220E13",
"e  c #230F19",
"r  c #231314",
"t  c #22141B",
"y  c #231B1B",
"u  c #281B18",
"i  c #331C18",
"p  c #391807",
"a  c #1C201A",
"s  c #25211C",
"d  c #39251E",
"f  c #040C26",
"g  c #180D24",
"h  c #071428",
"j  c #1B1C24",
"k  c #151D2B",
"l  c #1C1D2C",
"z  c #161624",
"x  c #041938",
"c  c #1C1E32",
"v  c #131A38",
"b  c #000D32",
"n  c #231D23",
"m  c #2B1C25",
"M  c #251A2A",
"N  c #271D33",
"B  c #1C232C",
"V  c #192126",
"C  c #1C2333",
"Z  c #162739",
"A  c #112834",
"S  c #232324",
"D  c #2C2223",
"F  c #22232C",
"G  c #2A232C",
"H  c #292A2B",
"J  c #362726",
"K  c #242333",
"L  c #2B2334",
"P  c #262738",
"I  c #332834",
"U  c #343236",
"Y  c #4F251A",
"T  c #442D28",
"R  c #49332C",
"E  c #473838",
"W  c #543C36",
"Q  c #53312C",
"!  c #68332A",
"~  c #521C1A",
"^  c #4C413D",
"/  c #56433D",
"(  c #774A39",
")  c #694334",
"_  c #001C46",
"`  c #111E40",
"'  c #082547",
"]  c #152948",
"[  c #18365A",
"{  c #0B2F55",
"}  c #273649",
"|  c #363846",
" . c #23395A",
".. c #2C3750",
"X. c #0A3867",
"o. c #103B6C",
"O. c #2A3D61",
"+. c #4A3D48",
"@. c #334459",
"#. c #33424A",
"$. c #164778",
"%. c #154674",
"&. c #27456A",
"*. c #274B75",
"=. c #28537B",
"-. c #34547A",
";. c #354B6B",
":. c #3C617C",
">. c #5A4945",
",. c #564B54",
"<. c #4C4850",
"1. c #674B46",
"2. c #68534C",
"3. c #6B5956",
"4. c #775A55",
"5. c #755048",
"6. c #78645C",
"7. c #6D615B",
"8. c #4B546C",
"9. c #675D6A",
"0. c #4B637A",
"q. c #796966",
"w. c #6E6A74",
"e. c #885447",
"r. c #8E6557",
"t. c #856C67",
"y. c #996A64",
"u. c #86746D",
"i. c #97756A",
"p. c #897876",
"a. c #967B77",
"s. c #846D73",
"d. c #AC796E",
"f. c #A3675D",
"g. c #C37F72",
"h. c #96837D",
"j. c #A6857B",
"k. c #BA8678",
"l. c #C6887B",
"z. c #C8917C",
"x. c #044A87",
"c. c #184C87",
"v. c #195488",
"b. c #1C5A9A",
"n. c #195695",
"m. c #0A5390",
"M. c #27588A",
"N. c #355882",
"B. c #245C97",
"V. c #2F5B92",
"C. c #286299",
"Z. c #356496",
"A. c #2E618C",
"S. c #1F5CA1",
"D. c #2C65A4",
"F. c #1F5F9D",
"G. c #4C6E94",
"H. c #6B7388",
"J. c #897C89",
"K. c #927B81",
"L. c #6B82A5",
"P. c #978885",
"I. c #918A96",
"U. c #A78C86",
"Y. c #B98C86",
"T. c #AA928C",
"R. c #B8958B",
"E. c #A99894",
"W. c #B69B96",
"Q. c #A88F95",
"!. c #B8A29B",
"~. c #ABA39D",
"^. c #9A96A7",
"/. c #9793A9",
"(. c #A498A8",
"). c #A89DB0",
"_. c #AAA3AC",
"`. c #BAA6A4",
"'. c #A8A6B6",
"]. c #B8ADB5",
"[. c #C98D82",
"{. c #C69587",
"}. c #D3968A",
"|. c #C39B94",
" X c #D49D93",
".X c #C9A69C",
"XX c #D8A597",
"oX c #C7ABA6",
"OX c #D7ADA7",
"+X c #CDB3AB",
"@X c #C8B4AA",
"#X c #D8B6AC",
"$X c #C9B8B5",
"%X c #D4BBB4",
"&X c #DCBCB4",
"*X c #DCBEBA",
"=X c #D5B8B5",
"-X c #CFADB1",
";X c #E5B7AB",
":X c #E3BCB4",
">X c #E2BEBA",
",X c #EBBDB6",
"<X c #E0ABA3",
"1X c #E4A99D",
"2X c #DCC3BC",
"3X c #D9C2B8",
"4X c #CDC3BA",
"5X c #E4C3B6",
"6X c #E4C3BC",
"7X c #EAC4BC",
"8X c #E5C9BE",
"9X c #EACABC",
"0X c #E7C9B5",
"qX c #F4C7BD",
"wX c #E7CAB7",
"eX c #B9B8C7",
"rX c #B1B3CA",
"tX c #9AA7C7",
"yX c #C6BDCA",
"uX c #E8BEC4",
"iX c #BDC2D6",
"pX c #DECAC4",
"aX c #D8C6C6",
"sX c #C8C7D7",
"dX c #D4CBD9",
"fX c #D5D2DB",
"gX c #D0C8CC",
"hX c #E5C5C2",
"jX c #EAC5C4",
"kX c #E4CAC4",
"lX c #EBCBC4",
"zX c #EBCDCA",
"xX c #E4CACA",
"cX c #F4CBC4",
"vX c #F4CCCA",
"bX c #EBD2CB",
"nX c #E7D2C8",
"mX c #F3D3CB",
"MX c #F7D5C9",
"NX c #E9D7D4",
"BX c #F4DAD3",
"VX c #F9D9D4",
"CX c #F2CED2",
"ZX c #FBE2DB",
"AX c #EFE0DD",
"SX c #C7CCE5",
"DX c #CAD2EB",
"FX c #D9D7E7",
"GX c #D1D5EF",
"HX c #E5D9E8",
"JX c #EEDDED",
"KX c #D8E5FA",
"LX c #FAE7E4",
"PX c #F4EEF5",
/* pixels */
"5 1 5 5 5 4 4 4 4 3 3 @ - 3 7 j c c c c c l j z M 5 F H 3 8 H o V   V s =   s   + = a = o o 2 H a 9 & > 3 > 5 5 - j F M B K K B ",
"j 5 1 5 5 6 6 & & 4 3 @ > 3 8 j l c N c c l j z F 5 n S 8 S 9 X a 2 s = = >.>.J + % o + s H S 7 X X & 5 8 8 3 - 5 j K l l P K B ",
"z 5 - - 5 5 > @ * * 3 3 > > j j l c N c c l z j G 1 F 6 s S   V   H S s ^ NX4X4X@Xq.s   o 9 9 % s 8 @ + > > 6 z < j K F M K L K ",
"; ; 2 2 3 > 3 4 4 4 4 @ > 3 8 F k c c c l l l z F 5 H 4 a 8   ^ 3 H D + 7.LX4X8X4XBXAX_.^     4 . . * y u n ,   3 M G M F F P N ",
"k C B V 2 - 3 y 4 4 4 3 > 3 j M c c c c l l j j j 8 I 9 4 & X 7., y s * E.nX@X4X8X3X4XnXNX].9.n J D r . O 4 n e e M m N N L L K ",
"..#.#.Z 5 X & y * * 4 * 3 5 j B k l c B k M j 6 5 G G y @ @ E w.@ $ u >.NX8XnXZX&X2XkX2X4X$XaXNX$X!.q.R r r e , e m I N N L I K ",
";.@.} V z 1 3 * 4 r 4 4 5 5 j B k c c l l l j z > I * y @ @ q.P.# i w u.bX!.@X@XlX2X*XaXNXNXNXaXkXBXNX-XT.6.T O e M I m N L L L ",
";...h h 1 5 4 @ r * * 3 3 5 j B k B l B l M j j 6 U   u @ r E.p.O I 0 !.ZX2XMX9X:XjXlXzXhXaXaXaX2XhX6XoX`.`.Q.K.e m I L L L I L ",
"[ h h h 1 j @ @ . . * 4 - S U k k k k V l j 5 5 G , r # * R PX3.O w 2.jX6XhX&XMX7X7X7XhXkXxXxXxX6XlXhX8XW.T.].P.w m I N m I I N ",
"' h ' x : X @ D s 3.^   - V 2 h B k l l l j 6 6 n y r u u t.LX1.O i p.uXhX7X&XcX7X7X7XlXhXxXxXxX6X9XlX7XW.T.oXh.e m I I N N I N ",
"x b b h h V + * 7.nXh.  D | j P B k k V j j 5 6 4 m # w T oXNX+.O R oX*X8X9X#XqX7X7X7XkXkXkXxXnX7X9X9X9X|.Q.oXu.w m I m N N N N ",
"x x ' h B B + 9 u.2Xq.  9 U h A k V B V j 8 6 6 m r $ $ 3.pXuX1.O 1.NX#XlX9X#X9X0X7X8X7XkXxXpXkX9X9X9XlX.XW.!.q.w m I N N N L N ",
"' X.&.] h o 3 7.T.h.^ . X H C h k A B j z 6 6 y J . # u W.xX=XW $ t.LX+X7X9X5X0X5X7X7X8XkXpXpXnX9XwXwXcX@X!.W.3.# m L F N N N N ",
"$.%.[ x ; : S E.pX7.d D 8 P } V V B B V 5 5 6 y y . q W zX>X*XR w W.BX%X5X8X0X0X0X0X8XkXkXkXpXnX0X0X0XMX3X!.W.>.# S L K N ` P ` ",
"A.X.x x P U ^ ].nX/ $ * 9 V B 1 V V B V 5 3 6 n w # w 2.-X=XhXY T pXpX2X8X5XcX5X5X7X5X8X2XpXnXpXwX0X0XnX3X.XE.>.* n G F c C C c ",
"$.%.X. .0.#.>.BXAXq.* 6 H B C Z V V B V 3 1 6 m @ J O 2.P.oXzXd W LX%XnX8X3XmX3X5X8X8X8XkXpXpXkXwXwXwXMX3X@XE.E @ n L F k C C C ",
"m.$.$.=.;.P _.xX~.7.o a 7 K k c C V a 1 7 7 8 9 y . J p.3./ q.T a.vX*X*XVX+X%XlXkXlX8X2XkX2X3X3XMXnXnX8XbXoX!.u y D H S j k B P ",
"m.m.=.*.@.P (.aXE.2.  a 7 K k c A V h 7 7 7 9 6 y D i / 4.t.2.O 4.VXCX#X>X=X6X*X%X3X2XkXnXnXbXBXwX8X8X3XhX`.E.m u H H V 5 j B B ",
"m.m.$.%. .P J.$XE.^   a j Z C C C V 1 7 5 7 5 6 . J . . J 1.2.W i e.i.-XLXZXhX3XnXbXnXkX3X%X4X3XlXmXbXhXkX`.P.u y D H 8 7 a H B ",
"m.m.=.$...g 9.aXP.s o a V K c c B j 1 2 5 9 6 4 . r O u W R R Y 5.4.1.e.W.+X*XmX8XlXkXkXkXnXbXbXhXzXkXhXzX$Xs.4 y D G 8 2 V B H ",
"m.x.c.*.] : +.NXP.= % a l P c c V j 7 2 2 9 6 * s + . q T 4.a.1.1.R.W.5.1.W.jXzX2X*X%X%X2XkX2X3X*X6X*XhXbXaX4.@ m D S 6 7 V B F ",
"m.x.o.M.` : M yXE.o = 9 V N c c B V 1 3 5 9 4 4 * J i . O i.ZX&XQ t.oXY.R.hXzX6XkXkX8XkXkXlXkX2XBXBXxXnXBXxX>.+ s D n 3 5 j F F ",
"m.m.c.O.` g X P.~.  a 7 l K c c B 7 5 2 2 3 3 * . T.!.t.2.h.+X.X>Xa.K..X#X*X+XlX2XhXnXkX3X3X3X8XoX%XoXoXoX@XU # D D 8 > 4 V F F ",
"x.b.o.X.v ]   3._.  s 9 j K N c B 7 2 3 3 4 4 # U nXnX@X8XOX!.#X&XR.,XuX7XVX*XhX3XpX%XU.2.T d d R 1.2.4.q.p.0 r D D 8 @ 5 V H F ",
"x.b.v._ f g z 4 ,.s % % B P c g 5 3 - 9 3 4 s . q.4XpX+X2X9X2XlX>XjXjX6X>XhXjXlXVXW.U.j.6.2.4.6.6.2.u.h.E.T.J O J t 6 6 - 6 L V ",
"x.m.$._ b h 6 @ H = % = M N N N z 2 2 9 4 & y . h.3XkX%X2X9X&X0X>XuXjX>X6XlXhX2X!.W.E.U.u.2.R 0 q q d d ^ >.r r y # , 6 > n G n ",
"x.x.X._ ` k 3 X o o % a M M N N 5 3 5 9 * * * * ~.8X2X4X2X9X5X&X>X>X>X>XhXlXhX&Xt.oX*X@X.XT./ O $ $ J / / J O u 4 O 3 6 < n N 6 ",
"m.x.X.X.] z 1 & o % = a M M g N 5 & 9 & 9 * + d 4X8X2X&X&X0X5X#X>X6X>X>XhXzXhX+Xj.kXbX%X%Xh.T O + q 2.`.`./ . y r @ < t , n G 6 ",
"c.x.o.*.] g 1 8 % % % 2 V B N g 5 X 8 & 4 9 O ^ pX2X3X3X3X0X9X5X7XjX6X>XjXlX*XoXoXlXkX%X3X~.( R q + / pXBX/   J m # , 6 > g m M ",
"x.x.c.O.] b 2 s % % % % V U N g 6 X s + u r . 7.nX4X3XwX5X0XqX5XlXjXjX>X6XhX&X+X3X3X3XnXZXnX4X4Xh.2.q.nX4Xs . ^ D w 6 6 > e m j ",
"x.c.c.o.` g g a % % % % V P N g 6 X s o 9 u O p.BX4X3X9X#X5X9X5X6XlXlX6X6XhX6X*XBX8X2XnXwX2XwX4XNXnX4XnXE.* d w.y $ , t < e m < ",
"x.c.c.O.` b f 3 % % a a 7 M g > n X S o u s O P.BX@X5X9X#X#X0X0X5XjXjX6X>XhXkXhXkX3XnXbX3XNXBX4X4XAX8X4Xq.* >.`.# . , t < n M 3 ",
"%.v.%.o.x ' ; #.: 7 7 9 S j < j 6 o S 3.. r q `.xX2X*X8XlXqXlXcX7XzXcX5X8XnXlX3XpXpXhXpXpXpXpXkXCX#XVX%X2.o 4Xh.% # w r t y 7 % ",
"%.%.A.X.f } 0.Z : 8 5 2 S 8 1 8 8   ^ 9.. u r `.nXkXhX7X6X7X7X7XMXcX0X3X&X8XlXbX8XpXpXpXpXkXpXxXcX,XCX@X= h.4XU # , w w 6 8 9 % ",
"$.A.%.x ; } A 2 - 7 6 4 S j 5 6 8   q.p.. u J -XaXhXkXjX6X7X7X7X5X5X7X9XlX8X5XhXlXkXhXpXkXpXxXhX,XcXlXj.J LXp.. , # w r 4 2 2 2 ",
"=.=.' G.;.H.8.#.: 7 5 5 S j 1 6 4 . E.Q.. u R =X%X2XhX7X>XjXcX9X5X5X7XzXcX6X&X8XhXkXhXlXkXhXxXhXjXVX*Xq.4X].+ * r w w e 6 % 2 A ",
"-.h L.KX0.w.iX#.X 8 3 5 S 8 - 8 # u $XE.. 0 / aX=XaXjX6X6XjX7X,XcX7X,X,X>X>X9XVXjXjXjXjXjXuXxXjXCXvX&XE.PX>.  s t w w < 3 : 7 A ",
"A @.KXSXI.P '.2 o 5 3 3 j j - 6 O E aX`.$ O 2.kX*XkXlX>X5XjX>X.X X&XcXvXcXcXjX7XjXjXjXjXjXxXxXjXCXuXaXNXP.= = + r w e t > : A #.",
"A ~.KXeXHX9.w.+.: 6 3 3 n 6 > 6 $ q.nX`.i . 6.zX8XzXjX*X6XcX=X|.y.|.:X,X,XvXqXOXuXjXjXjXjXxXjXjXvXuXaX4Xs % U o t w e M 2 ; A @.",
"~.KX'.PXfXw.| 6 o < 3 3 n 6 > 6 O P.bX!.T O t.bX*XhX6X&X7XCX:X|.i.Y.|.d.d.;XvXvXvXuXjXjXjXjXjXjXuXhXpXp.+ + d + t w n n h 2 A ;.",
"KX].fXfXfX4X<.  < - > X L - G @ d !.9X@Xd O T.3X8X&X&X&XjXlX6X:X|.Y.K.}.OXqXcXcXvXuXuXvXjX=XuXCX=XLXP.y u =   r r , e M h b [ 0.",
"4XgXgXfXfXgXJ.1 > < - < > e < O T +X0X3X( + j.VXlXlXmXVXVXVXjXOX|. X<X,XvXvXuX:X,XcXjXhXuXzXjXyXJX$XE   = 9   + w e g g g x  .:.",
"_.fXgXgXfXfXsX<.: j X n . m @ O R 3X0X3Xr.$ j.ZX&XW.a.r.i.W.>XVXVXMXcX,X:X,XcXVX6XjXjXhXuXxXzXCXNXq.+   a s = * , e M g h ] &.:.",
"~.gXgXgXgXfXHXL.: 3 g g X m $ # ) R.0X0Xr.0 R.9X6X#X|.R.T.R.Y.Q.XXOX,XvXMXcX5X#XvXjXjXzXjX=XjXLXK.I + s a = 9 y , m M f h [ =.=.",
"^.^.fXfXsXFXsXiX| g I > y r * 0 r.r.XXZXi.0 .X5X7XlXVXVXVXjXoXW.R.Y.R..X5XcXlX8XzXlXxXkXbXNXaXoXE : , S o % 9 + e M M f x &.N.=.",
"_.I.fXSXeXGXeXKXH.| <.: m * O p z.) h.MX.Xp OX9X#X&X&X&X5XlXVXVXMX#XR.U.W.3XmXZX2XmXxX%XVXPX+X,.+.> 5 9 o 9 s . w e g f ] -.N.c.",
"^.I.rXSXSXSXSXDXsX8.+., , w + ^ @Xr.( |.0X) OX9XlXlXlXjXhXhX*X*XbX9X9X9XcXnX5X3XkXnXkXpXkX$Xu.G ,.G X % = a y @ e e g g  .-.M.v.",
"^.'./.sXGXSXKXrXKXH.| z   d % 7.z.z.( ) 5Xr.5XwX6X>X>X>X*X>XhXkX3X3X8XlX9XlXlX9XbX3XaXLX$X,.U <.<.l X 5 = + + t t < f v O.=.M.=.",
"(.(.(.eXSXGXGXSXSXSX9.  n # O i.k.XXj.! f.#X,XuXuXuXuXhX6X7X6XuXCXaX=X%X9X0X0XwX+XBXJX(.8.O.O.N.&.h g r 0 q 0 0 6 ; h ' $.M.v.$.",
"(.(.(.rXiXGXDXSXGXGX/.c m 0 p j.k.k.XXk.! i.vXuXuXuXuXzXCXvX:X#XxXxXNXzXwX3XwXMXZXgXJ.;.{ *.D.V.&.b g t 0 q 0 w 6 ; h { M.M.v.=.",
"(.Q.I.).rXDXGXSXDXGXiX+.4 O W j.k.z.{.{.f.! y.CX:XuXCXvX:X<X0XMXuX$X*XkXnXZXNX4X~.w...] O.D.V.V.&.f z 6 0 q 0 r z ; x %.A.C.v.v.",
"(.(././.tXSXDXDXSXiXGX,.. . 4.j.z.z.d.}.XX( Q Y.CXuXOXOX,XqXqX;XCXuX*XpX3X4X].P.| ] O.N.G.D.V.M. .f j < 0 q 0 r 5 f _ *.C.v.$.b.",
"(.(././.).iXSXSXGXsXJXw.. 0 t.R.k.k.z.z.d.}.g.~ [.OXuXvXuX;X0XqX#XcXZXVX`.9.#.K @.&.=.A.V.c.c.V.[ f j 4 $ q * 4 1 b ' M.C.v.v.F.",
"J.(.).)./.tXSXSXGXSXFXI.. u q.W.k.z.z.k.d. X[.e.~ y.1XuX,X;X;XqXcX.Xt.>.E L } G.G.M.v.M.B.n.n.V.] ; j * $ u q 6 f ` o.M.C.n.n.b.",
"9.J.'././.tXyXDXSXSXdX).O m >.Q.k.}.d.d.<Xl.f.1Xf.e.! f.1X;Xz.f.( ( Q 6._.H.] %.M.v.v.n.S.S.S.M.' : V & O u q 5 ; ] *.B.n.b.b.n.",
",.J.).).J.tXrXGXsXFXFXyX> m E R.{.d.l.}.l.g.}.g.}.d.e.! ~ ~ ! ( r.y.5.a.sXH.{ G.v.n.b.n.n.n.n.M.A ; a 3 + u * 7 f [ M.v.n.S.B.n.",
"yX8.I.I.'./.tXyXSXJXJXdX< ,.K.3.<Xf.[.[.[. Xg.}.l.}.}.[.k.k.k.{.z.e.r.T.I.tX=.X.V.S.S.S.S.S.c.V.x 2 V s + # 8 1 x &.V.B.n.n.S.n.",
"gX'.| rX^.)./.yXFXsXsXJXI w.-X+.K.<X|.{.d.[.g.}.g.l.z.[.k.k.z.R.z.( h.!.^.iXL.X.c.S.S.n.n.S.n.c.h h V S & 3 8 f ' *.V.n.n.S.S.n.",
"dXsXw.w.rX/.).).FXyXyXPX,.J.PXw.1.:Xg.K.[.}.}.g.g.g.l.z.z.k.Y.k..XY h.4X_.'.tX-.o.V.D.n.n.S.S.c.h h P V 5 3 7 h  .=.V.n.n.S.S.n.",
"dXsXsX<.I.'.)./.eXFXdXPX9.J.PXyXQ K.|.[.XXK.}.g.z.l.z.k.z.k.{.{.z.d 5.~.].^.tXL.[ $.G.c.n.c.V.o.h Z P B 5 5 5 x =.M.B.n.n.S.S.c.",
"sXfXFX^.+.rX(.).J.JXdXJX/.J.JXJXK.+.OX X|.y.}.[.}.l.l.g.k.R.OX&Xj.6.q.q._./.'.).O.` N.V.B.$.b.$.b ..} z z z h ] =.M.v.b.b.S.b.n.",
"sXsXiXfXJ.9.'.).).dXdXdXdXyXdXHXuXe K.K.|.[. X[.g.l.[.[.Y. X:XVXq.@XE.3.P.(.rX).H.` O.*.Z.X.B.X.b @...f z z v  .:.A.A.m.b.b.n.n.",
"fX].sXfXdX+.J.].).rXHXdXHXJXSXdXJX,.~ K.K.[.[.g.g.[.[.}.OX;X9XnX3.gX*XE.6.K.].(./...;. .Z.%.V.{ _ 8...f 1 k A :.=.A.m.F.F.v.v.A.",
"iXiXsXfXrX).9.yXJ.J.HXdXrXdXsXdXdX].9.|.4.5.r.[.[.[.}.OX7X7X>X+X6.].dXAX3.1.Q.(.'.<.8.] -.=.Z._ _ 8...: ; k } :.=.v.A.F.n.m.m.A."
};
