/* XPM */
static char *_618937570059[] = {
/* columns rows colors chars-per-pixel */
"64 64 248 2 ",
"   c #0A0607",
".  c #160A08",
"X  c #16130C",
"o  c #0C1816",
"O  c #171718",
"+  c #100A10",
"@  c #251A19",
"#  c #2F100D",
"$  c #1B231D",
"%  c #25231B",
"&  c #37281D",
"*  c #1B1C24",
"=  c #181A29",
"-  c #1B1C33",
";  c #221E24",
":  c #281D26",
">  c #221E38",
",  c #321E29",
"<  c #1C2325",
"1  c #1C232C",
"2  c #19272B",
"3  c #1D2234",
"4  c #1B283A",
"5  c #222324",
"6  c #22232B",
"7  c #2B232B",
"8  c #242A2B",
"9  c #2B2B2D",
"0  c #2B2724",
"q  c #352828",
"w  c #2A332A",
"e  c #36352B",
"r  c #232434",
"t  c #242A33",
"y  c #2B2B33",
"u  c #24263B",
"i  c #242B3C",
"p  c #2B2C3C",
"a  c #2A2536",
"s  c #342B37",
"d  c #2C323D",
"f  c #273436",
"g  c #34333B",
"h  c #383837",
"j  c #431A16",
"k  c #553B2A",
"l  c #493838",
"z  c #553936",
"x  c #4B312A",
"c  c #582F2B",
"v  c #394439",
"b  c #424A3D",
"n  c #484538",
"m  c #55483A",
"M  c #49513E",
"N  c #68453D",
"B  c #704C3C",
"V  c #5A653B",
"C  c #1D2A42",
"Z  c #1F3040",
"A  c #252C43",
"S  c #2B2D43",
"D  c #252C4A",
"F  c #2A2E4B",
"G  c #272545",
"H  c #243244",
"J  c #2C3244",
"K  c #26324B",
"L  c #2B324B",
"P  c #2B3948",
"I  c #333344",
"U  c #33344B",
"Y  c #3A3946",
"T  c #2B2E51",
"R  c #252E52",
"E  c #233052",
"W  c #2E3353",
"Q  c #363855",
"!  c #332D46",
"~  c #3A3C62",
"^  c #453A45",
"/  c #4C3F50",
"(  c #3C4944",
")  c #3A4259",
"_  c #45444B",
"`  c #474A46",
"'  c #584B47",
"]  c #4B554A",
"[  c #495648",
"{  c #57574A",
"}  c #484A54",
"|  c #544B56",
" . c #4B5755",
".. c #5A5C54",
"X. c #565756",
"o. c #665649",
"O. c #78594D",
"+. c #675957",
"@. c #795754",
"#. c #6A4948",
"$. c #5C645A",
"%. c #576458",
"&. c #536252",
"*. c #65675C",
"=. c #766459",
"-. c #696F4F",
";. c #595A65",
":. c #4D5969",
">. c #675E64",
",. c #6C5E6C",
"<. c #5B6767",
"1. c #5D6E6C",
"2. c #646C62",
"3. c #676768",
"4. c #776969",
"5. c #6C746B",
"6. c #6D7A6C",
"7. c #677366",
"8. c #727A6D",
"9. c #767369",
"0. c #686974",
"q. c #736D77",
"w. c #6B7675",
"e. c #737C73",
"r. c #7A7D74",
"t. c #777678",
"y. c #825B50",
"u. c #896759",
"i. c #8D6955",
"p. c #886A67",
"a. c #85776B",
"s. c #977769",
"d. c #867877",
"f. c #967976",
"g. c #916D69",
"h. c #A27D77",
"j. c #758175",
"k. c #7A8276",
"l. c #7D847A",
"z. c #7B887A",
"x. c #79876D",
"c. c #748150",
"v. c #869957",
"b. c #85887B",
"n. c #96887A",
"m. c #959670",
"M. c #A6887A",
"N. c #AA927C",
"B. c #93A667",
"V. c #8BA158",
"C. c #7B7987",
"Z. c #847C8B",
"A. c #7C8785",
"S. c #868787",
"D. c #958988",
"F. c #869188",
"G. c #94958A",
"H. c #898797",
"J. c #938D97",
"K. c #969599",
"L. c #8C939D",
"P. c #A68984",
"I. c #A79489",
"U. c #B89488",
"Y. c #B69A97",
"T. c #AC918E",
"R. c #BBA798",
"E. c #B8A991",
"W. c #9C9BA4",
"Q. c #9E9BAA",
"!. c #9995A5",
"~. c #8F8FA6",
"^. c #A39EA8",
"/. c #A29CB5",
"(. c #9EA5B2",
"). c #A4A3AC",
"_. c #A7A5A9",
"`. c #B8A8A7",
"'. c #A5A4B2",
"]. c #ACAAB4",
"[. c #AEACBA",
"{. c #A9A6B4",
"}. c #B1ADBB",
"|. c #B1ABB5",
" X c #B4B2BC",
".X c #B7B4B8",
"XX c #B3B2B5",
"oX c #C29C90",
"OX c #C8A898",
"+X c #CBB69B",
"@X c #D6B49C",
"#X c #D1A68F",
"$X c #C6AAA6",
"%X c #CBB6A6",
"&X c #DCBBA5",
"*X c #DBBCAC",
"=X c #D5B7A8",
"-X c #CAB9B5",
";X c #D6BBB7",
":X c #D0AEA6",
">X c #E3BDAC",
",X c #E7BCA7",
"<X c #E4BCB5",
"1X c #DCC2AC",
"2X c #DAC4A8",
"3X c #CEC7B5",
"4X c #DCC3B3",
"5X c #D8C8B9",
"6X c #DDD2B8",
"7X c #D6CBAC",
"8X c #E3C3AC",
"9X c #E7C5AC",
"0X c #E4C4B4",
"qX c #EBCBB4",
"wX c #E2CABA",
"eX c #E7C7B8",
"rX c #F2CCBB",
"tX c #E9D4BB",
"yX c #F3D3BC",
"uX c #F0C1AD",
"iX c #D0C09E",
"pX c #B6B4C2",
"aX c #BAB6C3",
"sX c #BBB9C5",
"dX c #BEBBC9",
"fX c #B8B7C9",
"gX c #ADB0C4",
"hX c #C2BCCB",
"jX c #C0B9C6",
"kX c #C3BFD0",
"lX c #BDC2CE",
"zX c #C3C2CD",
"xX c #C2C1C5",
"cX c #DBC9C4",
"vX c #C5C2D1",
"bX c #C8C9D6",
"nX c #D2D3D7",
"mX c #E6CCC6",
"MX c #E8D6C6",
"NX c #F5D6C8",
"BX c #EBDDD6",
"VX c #F8DDD3",
"CX c #F1CEC1",
"ZX c #F7E8DB",
"AX c #F1E5CB",
"SX c #DBDCE3",
"DX c #F2EBEB",
"FX c #DFE3EC",
/* pixels */
"v.V.V.c.-.2.Z.^.J.Z.Z./.gX/./.~.H.H.H.[.pX'.Q.].[.'.'.{.[.[.Q.!.[.{.{.{.`.{./.`./.Z.|.^./.`.Z.Z.^./.|.^.Q.'.{.Q.).).Q.Q.'.Q.Q.W.",
"V.B.V.-.-.G.W.Z.Z./.fXkXgX~.Z.C.!.'.}.}.}.pXdXdXbXvXdXdXhXvXbXvXjXjXjXjXjXaXaXjXjXY.jXjXjXjXZ./.jXjXjXjXpXdXlXpXdXfXsXfXdXdXpXpX",
"V.V.c.-.b.Y.`.Z.gXgXZ.Z.~.~.~.~.!.dXnXvXdXlXdX].Q.'.pXdXdXaX}.}.hXjXhXjXjXjXjXjXhX/.hXhXjX|.!.jXhXkXhXhXlXzXzXdXhXdXdXdXzXlXdXsX",
"B.V V b.G.J.J.^.Z.Z./././.A.C.C.[.dXbXfX[.].Q.~.Q.[.dXzXhXdXsXpXjXjXjXaXjXjXpXpXjX|.}.kX}.!.Z.kXpXaXpXpXpXpXaXaXaXpXpXaXsXfXpX}.",
"x.-.c.G.G.F.Z.^./.~.!.!.C.;.C.(.vX[.^.W.~.H.J.^.lXvXzXpX XdXbXbXhXhXjXhXjXpXjXjXkXpXpXkXjX!.'.kXfXfXaXaXsXaXaXaXsXpXsXsXfXdXsXpX",
"V x.G.G.G._.^.!./.Z.;./ Q :.!.FX'.!.!.Q.!.S.H./. XhXlXpXpXsXsX XhXjXhXhXjXjXpXjXhXhX|.kXjX!.}.hXjXpXaXjXfXaXaXlXsXsXsXsXdXzXfXsX",
"{ b.K.G.G.^.J.q./ / ! ^ 0.K.(.!.S.H.!.J.C.C.L.]. XzXzXpXpXzXzX XfXhXhXfXhXfXjXpXaXkX[.fXpX!.aXpXpX}.}.pXaX[.XXaX X X X XsXsXaX X",
"G.K.G.K.D.t.' : + ^ ;.| 0.Q.).C.!.).H.X.h ;.^.nXbXhXK.q.C.).zXvXkXkXkXkXkXhXhXhXjXbXgXhXjX/.vX XaX[.|.pXaX[.[. X X}. X X XaXaX X",
"F._.H...3._ *.0 , , >.>.^.!.W.H.0.<.Y s ;._.zXsXH.} * ; g _  .3.C.Z.Z./.Q./.pXgXgX}.[.{.'./.Q.W.K.J.X.^.zXaXK.|.'.zXJ..X].sX.XxX",
"t.3...r.4.d.=.. , q t.d.S.0.q.;._ 3.q.0.J..X).<.^ 9 * O 5 6 y d = - - > a u r = > a u u > r r > I 9 a 0.zX_.C.).sXXXw.).aXnXaX].",
"r.X.9.d.@ l l % # % 4.Z.q.| 0.>.K.q.q.K.K.w.| | _ ..<.X.| } ( v U G G > U } Q p Y U U U U I I I g + ; 8 XXK.3.).].XXS.)._.XX.X.X",
"J.X.+.{ { E.E.B.m x ' d.,.;.Z.C.t.Y g ..3._ X.K.C.W.].).^._.(.G.H.C.;.> u S a = u u r > - - = = g * 9   C.F._ S.K.XX_.W.l.K.zXbX",
"` ] =.M E.AX6X6XE.n.' a.q.C.Z.0.: Y _ s g X.w.t.S._.]._..XSXDXFXgX~.~.F L S U U U I S S S i u u + 5 8 + _ H.5 h S.]._.S.q.J.nX].",
"e 4.b.o.iXiXE.6XMXiXo.4.S.Z.C.^ } ..3.} _ | 3.0.W._.).K.XXSXFXFXC.0.~.C S A S U S S p S S S S p * g r O < q.5 ; X.S.XXJ.3.3.lX.X",
"8.=.m v.AXAXtX6X6X6Xx ' C.Z.,.G <.h g ] ;.3.F..XXXXX_._.(.xXSXnXgX~.kX~ Q A - u G S S S S S U I _ ( 9 O O h h 5 < _ ^._.3.e W.3X",
"r.9.o.6X7X+XiX7XiXMX& , | C.| > | Y 6 9 | t.G.K.W.)._._.gXlXbXSXgXC.fXE L p A J J P F S S A i i 6 + 5 9 g O h + ;   >._.S.f S._.",
"n.n I.MX=XwX1X&X<XmX4.4., l ! / O ;.;.s } J.|.).W.'.].(.(.lXnXnXgX~.1.Q W H 4 L A P P P K H 4 2 f o t o O y X q s q   =.^.' `.4.",
"=.B +XCX;X0X<X0XmX:Xz #.' q l q / | s a 0./.].Q.XX XgX].(.lXlXnXgXfXA.~ 4 A H Q H H H H Z 4 2 < o o f f 7 5 O : . q , | f.3.|.9.",
"m p.wXtX*X0X*XeXCXoXx #.d.x ^ ^ , l / p.^.|.XXxXW._._.K.(. XlXlX~.gXA.W 3 4 G S 3 2 2 1 2 2 1 1 8 h 2 $ X + , , . +.Z.d.+.| `.`.",
"m E.NX7X1X0X*XqXCXoX@.y.g.| q ,.f.+., l g.W.T.D..X.X.X.XXX.XlXlX~.A.;.a S Y a > I g s g p y y s 8 v o @ : 0 o./ 4.Z.<X$X4.| D.cX",
"O.7XtXiX1X9X1X8XCXoXh.h.g.Z.# #.y.Y.Y.u.z & x ' ' ..+.3.9.t.r.Z.C.| G , / ^ , , s q , : q 0 q q % ` e ..d.S.W.@.$XT.Y.D.4.D.D.`.",
"N.tX2X@X8X8X8X&X<Xs.s.oXf.$X. # z P.=X=X=XR.p.z x q q q 0 @ @ q D > : , , , : l q q q l ^ | +.+.r.D.d.D.$XhX-Xf.!.`.Y.p.@.`.-XD.",
"+XtX+XiXqX@X9X&X<Xi.y.#XZ.h.c j j oXrXrX>X*X=X<XR.I.a.@.m q 0 e ^ c x ^ #.,.@.g.f.Z.P.T.Y.:X;X;XMXcX-XI.Y.;XY.g.f.jX;XY.4.`.`.d.",
"2X6X+XqXtX@X9X2X,Xy.B :XU.B g.y.B U.,X&X:XoXf.u.u.O.o.N m ' =.f.Z.f.p.p.$XmXmX;X<X<X;X<X<X5X<X0X5X;XmXT.U.;Xf.#.oXCX:XhXD.T.d.^ ",
"iX2X9X9X2X2X2X2XqXk k M.;XZ.y.p.i.y.oXrXOXh.h.U.M.N.OXOXM.o.k N c @.c j #.j #.U.U.<XVX<X<X<X<XCXwXwXwXM.:XOXN P.p.;XmXhXf.f.+.+.",
"2X8X9X2X9X2X2X2X&Xk k B Y.OX:X<X<XU.OXNXVX<X*XOXs.I.R.OXE.R.=XwXh.j N g.c c g.j y.oX<XCXCXrX>X*XOXVXNXO.@.M.@.U.Z.:X`.;X=.t.{ t.",
"8X8X8X7X2X2X6X6X#Xm & # #.g.Y.$X$Xp.y.T.:XmXNXVXf.M.$X0X4X2XyXZX<Xj c N j N NXU.U.>XuX8X<XuX,X8XqX>X0Xs.u.p.=.OXZ.oXmXp.a.n r.r.",
">X0X0X8X2X2X6XtXB.m &   . , ^ l l : : l ' 4.`.BX4XI.M.1XyX2X#XOXZXoX#.y.Z.:XNX:XrXNXqX:X,X<XuXCXyXOX0X<X#XN.s.U.h.#XVXm 9.` G...",
"<X0XuX0X0X4X6X6X9.x n X % X @ : + > 7 7 7 s +.T.ZXR.f.I.8XyX@XoXi.:XoXs.h.N g.,X@X0X8X>XqXyX8X9X&X2XAXqXE.oXN.i.I.%Xn.*.b b.2.v ",
"<X<X<X<X4X4X5X6XV % n w e X ; y - U Q P I 9 : l 4.`.1XOXE.2XrX&XNX:Xp.@.,X,XrX<X:X0X8X8XyXyX1X9X8X&XqX9XN.i.s.M.MXI.m *.*.k.[ v ",
"<X<X<XCX4X7X3X3XV & M $ $ o $ 1 - E E H ) I * 0 @ 4.$X:XoX@X9XqXNX<XM.f.CX;X<XOXtXCX8X&X0X1X2XtXyX@X#XqXOXi.s.%X%Xo.n { A.[ [  .",
"<X<X<X<X4X7X3X3X{ v %.w $ % 8 = - ~ E 4 U I p } h @ , a.wXMXwXeX-XNXn.@.VX0X=XCX%X4X1X2XwX1XiX9XtXtX2XqXtX%X%X+Xo.{ V b.%.[ v j.",
",X>XqX0X0X;XBXI.o.X.n Y y * r 1 J J J S S L ! U Y I y y _ r.XXnXMXAXn.a.7X6XE.3X5X2X%X7X5XtXtXtX6Xn.{ m n e e { e -.z.X.v [ 7.j.",
"8X>XeX9X0X*XBXD.+.4.g | r = r t d J J J F L L U W F J J d Y } X.b.G.b.n.MXAX5XZXMXMXMXMX6XOXn.=.e @ X % X X X v $.8.7.] [ 2.j.1.",
"8X&XqX1XwX4XMXn.+.J.y 3.9 * t I i J J S F L F W G F W P d 3 1 O O q h ` 9.d.t.D.Z.d.p.,.o.l & . X O % % % % v ..b.5.{ [ %.j.x.j.",
"8X&XwX1X0X3XMXa.+.G.h >.( O t d i i S S L L T U F L U L I J J J a 6 7 a * 6 s s ^ s : @ ; : : , & 0 % O O h *.r.e.%.` &.j.x.j.1.",
"1X2XeX2X6X3XcX4.o.b.+.] 3.O d r t i S J F T T T Q W T F A S S I } F W W > ! Y G p ! ! ^ ^ ^ a a X X X O h *.l.l.[ [ X.7.j.j.1.j.",
"1X1X6X2X6X5X5Xo.' r.t.h k.9 8 < 3 i i L U U T T W T D G F S S A T G G T T W Q G G G ! Y G > = + X O w { r.G.k.*.v { 7.k.z.j.6.j.",
"3X1X6X;X6X5X3X' n 9.b.e 6.$.5 < 1 u i F T T T T T R D T W Q L L D R T W Q W T G Q U S u > > - 6 8 h ..r.k.7.] v %.2.j.l.k.j.j.7.",
"4X4X6X-XcX5X3X' n t.b.e $.z.$ 8 2 r A J T T T T ~ Q T G F L L F R T E E E D G Q F S J S u > 3 < $.2.k.b.8.{ ` { r.l.j.6.e.k.6.%.",
"`.MXBXBXBX-Xk.....9.5.5.h 5.%.< = t i 3 A Q Q D T T T T W F L F R K E K K Z Z Z ) f 2 = o t } 0.5.j.l.j.&.` { e.5.8.e.l.r.5...` ",
"` +.+.{ ..' & $ { *.e.2.] &.5.] O 1 i J S i R Q T T T W W W F L D K K K P P H Z f 2 2 f ` $.e.A.F.e.*.X.[ ] 2.b.r.r.b.l.5.{ $.r.",
"0 h q 0 e h 0 w %. .l.7.2.v e.w.g 2 < J J u G Q F F T L U F F S Z Z Z Z Z f f f f 2 f [ 6.z.x.8.%.[ b [ $.6.e.k.r.b.l.9.$...3.r.",
"y Y g g Y g y w 3.X.t.C.w.b $.z.w.v o o d Q J u F F F L F S F A Z f Z P Z f f f 2 v &.7.k.x.7.&.v `  .7.k.l.k.e.5.l.5.{ *.r.*.q ",
"y I g p I y 5 y <.;.<.S.w.%.` w.F.$.w o < Y P 3 J F L J S S i i K K P P P P f h $ [ e.z.8.*.&.M 7.j.x.j.e.8.k.k.k.3.*.&.4.*.l   ",
"U Q ! S Y J p } :.<. .A.e.w.( ..j.z.$.w o 2 d J S J J S J i i i Z H A A f 4 4 2 v 1.F.k.&.M b v [ 2.j.j.j.e.j.e.S.*.{ 4...% X & ",
"! U G i L i A }  .0.:.1.A.A. .[ 5.z.z.%.w < 6 I d S S J A i i i C C C 4 4 3 - = ( <.5. .h w e 8 o v ( &.7.j.k.5.8.*.*...h X X e ",
"A F U Q ) J i ) :.C.w.} A.w.&.v 7.x.z.k. .2 O t d d J d J i u u E E K K C C 4 3 4 P g < < w e 8 v w o o ( 6.S.r.] 9.2.e O q 9 o ",
"T T L L L L J J :.0.A.( A.A.[ [ [ b.m.7.6.%.2 o g d i i i 4 3 4 K A A A D L L S J S S ! S S S p 2 f t < < f $.b.2.] g ; * > 6 > ",
"L K E K L K K K :.<.C.1.:.z.c.[ M x.z.6.z.6.[ h < t d J a 3 J ) L L W P A A A A F F F F F ! F F f f 4 < O < v  .] Y 8 * > a p ! ",
"F K L L L K L H ) :.1.A.( j.A.&.M 7.j.6.F.z.5.<.y t t t r > u U i i I L S A S J F K F D F F T D S p t * O * 6 9 s 9 6 > a G G ! ",
"K P K K K L K K P 1.1.A.[ &.A.c.M %.6.x.k.j.e.t.<.g o * p Y p a i p S J J L L L S F F T D T R R L A 3 1 r t 8 8 f y y y p p u > ",
"J J J L L L L J 4 1.1.1.j.( j.z.[ &.6.j.e.5.r.l.S._ O * g Y I s I p y a I I S A D L K R E R E R W G - - G ! g p y p p J ! S u > ",
"H J H J J H J H = <.1.:.A.( c.z.&.[ -.z.e.e.r.b.5.h ; O ; ; : ! h 9 7 7 a p I S J D D R E E E E Q G > - > p ! p t p g I I I S p ",
"J J P J J J P J 4 ( j.1.1.&. .j.j.[ { e.r.e.l.2.` % X q ^ _ +.q.q.4.>.} g y p I J F K K E E E R T G > > G ! S u i p p I J S S J ",
"d d d J J J J J P 4 1.A.( 1. .c.z.[ ( 6.j.r.9.[ h . . ' T.;XcXBXBXBX;XD.' 7 7 p p S L D E E E R G G G G ! G G u S S J S i i i i ",
"d d d i t 3 i i P = <.e.e.X.6.[ j.j.( %.%.[ { h % X @ %XmXmXmX5X5X-X;XZXcX>.: s r ! u u W K G G T > G ! G = > Q L S S A S J i 4 ",
"y t t t r r p d I 1 } w.w.&.*.$.&.j.f ( ( v r.x.O.l +.mXmX;X;X=X;XwXcX5XcX-Xd.7 , l g a I U ! U ^ ^ > > G / T - F S A S J H i 4 ",
"6 8 8 6 1 t y d g y d 0.e.2.X.x.( &.( &.&.v x.7.9.m T.mXeX;XrX8XeXeXwX=X4XZX;X'   q s : : a : * > s Y a G ! F > ! F A A J H f 4 ",
"< < 6 6 = 1 r p d ( < 3.S.e.` z.f  .j.j.x.v -.&.O.m =XeX<X&XrXuX0X+XwXwX*XmXcXf.& 4.D.d.t.4.+.^ , : : ^ ! : - / F S D A K H H 4 ",
"5 5 8 < * < r y y Y O <.S.k.v e.&.1.&.1.j.n b.a.=.o.yXeX,X@XuX,XrXOX8XyX=X*X;XN.s.;XVXmXmXmX:XR.D.' @ 7 h p r S F S D K H H A 4 ",
"5 5 5 < * = 1 r 8 d * _ A.e.` 2.%.j.%. .j.M G.a.-.M.NXrXuX,XuX,XqX2X8X2X*XrX&Xu.M.>XCX0X<XmXmXwXcXR.9.h @ a p u F D D C K H Z 4 ",
"% 5 5 5 5 5 r y t y 6 h A.t.*.$.&.1.7.$.b.b b.+.=.%X&X,X,X,X,X,X8X9X8X@X9XrXOXy.U.*X>X>X>X>X9XrX7XMX5Xb.l * a ! J S D K K Z Z C ",
"O $ 5 < 5 6 y d g 7 y 7 b.b.l.2.(  .1.&.b.v m.9.=.NXOX@X#X#X#X#X#X9X9X9X9X@XN.i.#X,X,X0XuX,X=X9X7X3X5X5XD.h * p F S C K K E Z C "
};
