/* XPM */
static char *_6c231ef51d04d45abe9c3d05a32e563B7p9BGoI8C0ajzPC[] = {
/* columns rows colors chars-per-pixel */
"64 64 251 2 ",
"   c black",
".  c #1D1312",
"X  c #321B11",
"o  c #39251A",
"O  c #181E28",
"+  c #1C2429",
"@  c #162434",
"#  c #10283B",
"$  c #262525",
"%  c #342F2F",
"&  c #373338",
"*  c #482219",
"=  c #4B352E",
"-  c #57352B",
";  c #453637",
":  c #653D38",
">  c #3E462C",
",  c #4C4A39",
"<  c #6A4A37",
"1  c #764A3A",
"2  c #68643F",
"3  c #0B2948",
"4  c #162D45",
"5  c #183448",
"6  c #083759",
"7  c #183955",
"8  c #133B5B",
"9  c #273646",
"0  c #35374C",
"q  c #283B55",
"w  c #083D65",
"e  c #113D66",
"r  c #443C49",
"t  c #174352",
"y  c #3B4649",
"u  c #284553",
"i  c #384657",
"p  c #094367",
"a  c #0C4777",
"s  c #234865",
"d  c #32546F",
"f  c #494B54",
"g  c #514F50",
"h  c #4B5458",
"j  c #694D45",
"k  c #7A554A",
"l  c #67595A",
"z  c #765658",
"x  c #65635F",
"c  c #6D665D",
"v  c #726C50",
"b  c #485865",
"n  c #49506F",
"m  c #555465",
"M  c #675B63",
"N  c #775A64",
"B  c #5B6467",
"V  c #526572",
"C  c #686267",
"Z  c #75686B",
"A  c #676B76",
"S  c #776E7B",
"D  c #6B737B",
"F  c #757A7A",
"G  c #914E36",
"H  c #A64E34",
"J  c #A75939",
"K  c #AC5C3C",
"L  c #B6593A",
"P  c #AA613C",
"I  c #B9633A",
"U  c #C65C3B",
"Y  c #C6653C",
"T  c #D3673B",
"R  c #885747",
"E  c #975A47",
"W  c #875752",
"Q  c #A75B45",
"!  c #B55E44",
"~  c #96614A",
"^  c #8D724F",
"/  c #8A6459",
"(  c #996657",
")  c #AA6348",
"_  c #B36243",
"`  c #B86749",
"'  c #B0744D",
"]  c #A86957",
"[  c #B56B53",
"{  c #B76A57",
"}  c #A97255",
"|  c #B9725A",
" . c #915B61",
".. c #886667",
"X. c #966C63",
"o. c #9A7469",
"O. c #8B6C72",
"+. c #877678",
"@. c #967876",
"#. c #A86D64",
"$. c #A77566",
"%. c #B97967",
"&. c #A87C76",
"*. c #B27576",
"=. c #C65D45",
"-. c #C76947",
";. c #D46846",
":. c #C77249",
">. c #D6764C",
",. c #C56D55",
"<. c #D36D53",
"1. c #CC7354",
"2. c #C67458",
"3. c #D87858",
"4. c #EB764D",
"5. c #E57956",
"6. c #EB7C5A",
"7. c #F47C56",
"8. c #C67A65",
"9. c #C3746B",
"0. c #D67B64",
"q. c #E37C64",
"w. c #F97D61",
"e. c #918B56",
"r. c #B09359",
"t. c #938970",
"y. c #96837B",
"u. c #A98677",
"i. c #B28C70",
"p. c #B7867A",
"a. c #B0A96E",
"s. c #C8984E",
"d. c #D9825B",
"f. c #EA8456",
"g. c #E4825C",
"h. c #EC835B",
"j. c #F58256",
"k. c #F3835C",
"l. c #D4AE54",
"z. c #CA856B",
"x. c #D98468",
"c. c #C68775",
"v. c #D68877",
"b. c #D8957C",
"n. c #E68567",
"m. c #F28463",
"M. c #F28869",
"N. c #E88D73",
"B. c #D4B36F",
"V. c #CBB974",
"C. c #D7CF50",
"Z. c #DBD758",
"A. c #E2CE58",
"S. c #E6D656",
"D. c #E5D45A",
"F. c #D9C968",
"G. c #D6D668",
"H. c #D1CF73",
"J. c #E7CD6E",
"K. c #E5D565",
"L. c #D9E370",
"P. c #2E6189",
"I. c #526C87",
"U. c #7A7C88",
"Y. c #8F7786",
"T. c #877885",
"R. c #A97F95",
"E. c #768695",
"W. c #7393A6",
"Q. c #868887",
"!. c #978987",
"~. c #8D9095",
"^. c #999898",
"/. c #A78A87",
"(. c #B88A85",
"). c #AA968C",
"_. c #BA9588",
"`. c #A88F92",
"'. c #A89999",
"]. c #B79996",
"[. c #9EA09F",
"{. c #ABA59D",
"}. c #B9AD9A",
"|. c #8A96A7",
" X c #A59AA6",
".X c #BD9BA5",
"XX c #96A4B2",
"oX c #A8A7A9",
"OX c #B8A9A7",
"+X c #A8AAB7",
"@X c #B8B6B2",
"#X c #B8B7B7",
"$X c #CA9888",
"%X c #D79988",
"&X c #C69A96",
"*X c #D39290",
"=X c #E49987",
"-X c #C7A49C",
";X c #D7A798",
":X c #D5B095",
">X c #EAA88D",
",X c #E4AB98",
"<X c #D59EA4",
"1X c #C8A9A5",
"2X c #D5A8A6",
"3X c #CAB5A9",
"4X c #D8B5A7",
"5X c #D3AAB4",
"6X c #C5B9B7",
"7X c #D8B9B4",
"8X c #E6AFAE",
"9X c #E8B6A8",
"0X c #EABAB8",
"qX c #BDC2B8",
"wX c #D2CF8F",
"eX c #E5CF88",
"rX c #CFC8B5",
"tX c #EDCFA7",
"yX c #EBC6B8",
"uX c #EAD8B3",
"iX c #DEE0BB",
"pX c #EDEAB2",
"aX c #9BADC5",
"sX c #ABB3C0",
"dX c #B8BCC7",
"fX c #C5BBC3",
"gX c #B0C3CD",
"hX c #D5C7C5",
"jX c #CDCCD0",
"kX c #D4D7D9",
"lX c #E5CAC3",
"zX c #E5DAC7",
"xX c #FAD7C7",
"cX c #F5D7CF",
"vX c #EBE7C7",
"bX c #EFEBCF",
"nX c #E1E1DF",
"mX c #FBE3D8",
"MX c #FEEBDC",
"NX c #FCF9DC",
"BX c #D7DCE4",
"VX c #CADDF1",
"CX c #DAE4E7",
"ZX c #DFF3FA",
"AX c #E6E7E8",
"SX c #FCEAE4",
"DX c #FFEBE4",
"FX c #FEF2E6",
"GX c #FDFAE7",
"HX c #E5F1F1",
"JX c #E5F8FF",
/* pixels */
"                                                          GXNXNXGXGXNXzXiXbXGXGXNXvXiXbX                                        ",
"                                                          vXrXpXNXbXpXwXwXtXpXpXwXwXwXiXNX                                      ",
"                                                      AXqXvXa.:XL.eXH.L.F.G.G.L.L.C.G.L.pXiXuXuX                                ",
"                                                jXqXvXiXiXtXa.B.J.K.K.D.K.Z.S.S.Z.Z.Z.G.L.H.wXeX                                ",
"                                                }.> 2 a.B.eXJ.l.K.D.D.D.D.D.K.K.C.S.S.Z.G.G.G.L.wXuXvX                          ",
"                                                nXv v r.s.s.l.A.C.A.S.D.D.K.D.A.S.S.C.C.Z.Z.C.Z.eXtXbX                          ",
"                                                qX}.r.r.s.l.l.J.S.D.D.D.D.D.S.S.S.S.C.A.G.L.G.G.B.V.3XzX                        ",
"                                                CXqXa.i.z.B.B.>XJ.J.A.K.D.S.S.S.S.S.S.K.F.F.V.V.V.wXbX                          ",
"                                              JXXXh c v 2 ^ ^ t.a.e.a.C.H.H.G.G.F.l.l.H.r.e.v 2 wXvX                            ",
"                                            CXW.# + + $ = = % > , , g 2 v e.e.e.e.^ v e.}.3XD B NX                              ",
"                                          kX+XA E.~.F t.y.c f o + O 9 B F F Q.~.`.+.+.'.kXdXI.XX                                ",
"                                    CXZX  AXkXjXkXqX^.).)./.).y.+.x , h m A T.T.T.T.Y.+.Y.~.+XjX                                ",
"                                E.CXJXZXdXU.~.6XrX{.t.+.@.p.;XyXrX-X!.l l !.`.!..X5XR.O.fX#XA U.jXfX                            ",
"                                JXgXW.d 3 0 +XOXrX@X).u.].(.&.;X:X4X8X].].0XyX8X0X5X5X7XfXU.9 u f T.-X4XtXmX                    ",
"                              jXI.s e 6 3 q +X+XhXhX}./.&X(.&.(.$X2X2X5X7X4X:X3X&X&X1X1X`.g 5 u 0 l o.} | c.;X4XyXyXxXmXl       ",
"                            oX& 8 e w e e 4 |.fXhXhX3X'.O. .@. ...&.O.Y.].).u.a.R.@./.!.S y u u 0 l X.} ' ' ] ] $.i.i.c.1XhX    ",
"                        JXXXt t a w a a 6 6 d E.U.S C M g g f B N ..O...o.u.u.p.o.u.&X&X&X@.g g : ( ] E ] ` ! 2.2.0.3.3.,.| b.tX",
"                        jXf 0 9 s e 7 8 8 3 q b |.fXhX#XhXjXdX^.]./.&.*.i.$.$.$.p._.&X2X1X]./..X$X%X,X*Xv.%X%X>X>Xv.8.x.z.` ) z.",
"                         Xz N v l l f y i q 4 q i E.dXdXdXjXkXjXyX;X$Xv.8.%.c.p.u.( (.&X&X&.*X<X0X2X8X8X,X,X9X;X%X%X8.{ %.E E %X",
"                      SX$.#.) ) ' } ^ ( O.C f 9 7 7 s V E.XX+XsXeX=X0.0.,.) 9.#.< N .X<X&X@.*X(.@...o.p.p._.c.$.%.( ( ] ( ( $X  ",
"                      yXp.8.>.d.d.,.,.{ #.p.Y.m q w w w 6 t u u ) 3.3.0.2.2.9.#.- ).1X8X2X.X(.*XhX7X3X].@.../  .W ( X./ o.7X    ",
"                  x yX;Xx.:.d.d.3.;.U L H { *.@.r 9 7 7 t 5 9 i 1.N.q.<.[ ,.9.E u.2X<X8X5X-X(.2X        SXlX1X3XrX7X7XlXSX      ",
"                  {.9Xp.2.:.I Y =.-.;.=.L L _ { *. .z N M l z +.9.0.,.] } 8.v.9.8X5X0X0X<X.XhXDX                  hX            ",
"                  Q.MXc.z.1.L Y ;.5.0.0.n.,.! 0.N.q.q.q.v.v.c.%.*X=X%X*X%X,X;X;X,X0X5X<X1X3X                                    ",
"                    bXxX) ! U >.q.g.n.3.2.[ _ n.g.k.k.k.m.n.x.z.*X0X9X,X9X9X,X9X4X2X.X6XnX                                      ",
"                      1X$.9.,.1.<.-.:.` _ J H I 1.d.g.3.3.3.3.1.=Xb.%X=X=Xc.p.(.*.7XSX                                          ",
"                      y.$.] ] Q Q K _ K _ ! H Q Q _ _ _ K L L -.{ [ [ 2.0.8.i.} $XxXC   Q.                                      ",
"                      hX@./ k ( ~ E ( ) Q Q G G ) J K P K L ! ,.v.v.} [ 8.[ } ;XmXFXx                                           ",
"                        zXj - - < < k k W ( E E ~ J J J P Q ! ) ] $./ 1 G G #.cXmXM                                             ",
"                        SX/ - X X X X o = < j z v G R R ~ R k R z j - - 1 E ] ] c.0XDX                                          ",
"                      SXSX*.#.R < - * * X X o * ; ; % r & & % % j : z $.| ` ,.2.N.b.$X:XxXSX'.M                                 ",
"                        2X .Q | %.#.#.#. .W z l m n n n n n V V  .`.9.,.,.-.;.7.7.h.d.z.c._.2XxX                                ",
"                      FX$XE J ! Y >.f.f.j.j.7.7.7.7.7.7.4.5.:.I ;.-.-.-.Y T 5.w.q.w.h.h.h.f.f.j.b.uXMX6X                        ",
"                      hX&XE Q ` Y >.d.f.k.k.j.6.5.6.6.7.w.k.d.d.,.` ` -.;.5.m.m.w.w.m.h.6.f.f.f.b.z.b.9XMXy.                    ",
"                      mX-Xi.b.c.g.g.n.n.n.5.d.n.0.n.n.m.M.3.' P G ! ,.1.3.5.<.;.<.5.5.5.5.7.j.j.g.h.g.x.>XyXNXAXqX              ",
"                      OX..W ( #.{ { %.%.%.9.8.%.} %.{ 2.3._ P G H ] Q Q K ! L ! L L =.U ;.;.4.7.f.j.j.m.g.x.,XxXGX{.            ",
"                    kXC ; o - X._._.-X-X1X3X1X3X-X_.$.p.%.%.( ~ R R E G Q Q Q Q _ ,.,.3.5.5.4.7.7.7.j.k.k.q.n.N.9XyXNXC         ",
"                    jX& % ; ; @.^. X[.^.~.^.'.[.oX@X3X7X&X2XyXMX2X$Xo.W E E E ] ] ' 8.0.n.M.k.j.7.j.k.5.k.m.m.6.q.=X:XMX{.      ",
"                    kXf % % $ & y f h y y y f g h g g Z T.AX      SXcXyX&Xu.o.( ~ E E ) ` >.>.5.7.5.7.k.f.5.f.M.M.v.p.xX{.      ",
"                      A & $ $ l Q.oXqXqX@X@X@X'.'.!.Y.+.Z AX            FXMXzX3X).u.} E J P Y Y ;.5.5.>.f.h.d.1.[ z.p.SX        ",
"                    #XE.% + $ F &X1X4X4X;X;X-X;X,X4X0X5XhX                    {.GXMX4Xi.} [ ` :.1.:.>.T Y Y I K ) ] yXC         ",
"                      oX$ . . l ) %.%.2.0.x.x.3.3.{ #.(.lX                        FXSXyX%.{ ` L J J P P P I L ! J #.yX          ",
"                      #X; % * j ! 0.N.h.g.h.f.6.q.0.z.p.MX                          DX_.( ] ! ,.[ ) [ ` I I L =.{ c.yXSX        ",
"                        3XZ 1 / _ 1.3.d.g.h.j.k.k.M.b.c.MX                          DXp.#.%.Q Q ! ` 1.` Y Y =.` #.8XSX          ",
"                        cX#.R ] P K L I Y T d.g.m.N.%._.MX                          6Xk X.] G ) ! -.0.5.3.<.2.i.-XmX            ",
"                      1X$.R Q Q K ! _ K P P K s.,.| c.4XGX                            7Xo.k R ] ] [ 0.q.x.z.$X3X                ",
"                    SXX.1 G ` -.` ! L K P P J J _ | 9XMX                            OX).].*.*.%.X.p.2X;X;XyXvXx                 ",
"                    1Xk E Q ` q.q.q.<.! ! ) J _ [ z.xXGXhX                        AXf ; o.(.%X%XZ 3XFXFXMXrXC                   ",
"                SXyX~ G ) ' _ I T 4.j.7.4.<.0.8.#.4XFX                            |.4 3 6 6 d a b BX                            ",
"                C rX/ ~ ) :.g.5.;.U T ;.<.,.| | ;XxXx                           CXb # 5 8 e w P.BX                              ",
"                  DX_.~ { 3.6.k.n.3.n.x.z.v.%XyXmXGX                          kXA @ 5 5 3 6 6 P.jX                              ",
"                    3X$.%.N.m.6.v.b.v.z.c.4XuXnX6X                            #X+ @ 4 q 7 7 e e b dXQ.                          ",
"                  Y.O..X&X*.c.0.&.yXyXxXmXSX6X                                B + @ @ # 4 3 7 8 9 u b |.gXQ.                    ",
"                dX9 0 U.^. X XY.!.GX  hX  '.                                AXf + O @ # # # 4 7 9 y b m F +XBX                  ",
"              ZXW.e 6 8 s 0 0 V kX                                            fXS h 0 + @ # # 4 S  XsX+X XoXoXfX                ",
"            JXVXa 6 w 6 7 4 I.BX                                                  CXkXgX|.V 5 5 r m S T.S C g M  X              ",
"x           aXd e w p 6 6 V CX                                                              kX+XE.D A A A U.^.#X                ",
"  x       gXd 6 a w w 8 7 +X                                                                                                    ",
"x     CXW.s 7 w w w w 8 V XX                                                                                                    ",
"  CX+Xy & i 5 7 8 8 3 3 |.                                                                                                      ",
"HXE.t.[.Q.!.T.S h 0 @ E.ZX                                                                                                      ",
"t.Q.oXOX.X5X6X X3XF c                                                                                                           ",
"U.9 h F U.Y.Z T.S l ^.                                                                                                          ",
"VXaXI.i q i 9 m S  X                                                                                                            "
};
