/* XPM */
static char *_618937595003[] = {
/* columns rows colors chars-per-pixel */
"64 64 254 2 ",
"   c #1A0201",
".  c #17100E",
"X  c #290303",
"o  c #340101",
"O  c #3B0101",
"+  c #3C0D0D",
"@  c #380809",
"#  c #3B0A15",
"$  c #3D1213",
"%  c #351312",
"&  c #32110E",
"*  c #322918",
"=  c #2C3426",
"-  c #172711",
";  c #420302",
":  c #440C0C",
">  c #4B0E0D",
",  c #4C0703",
"<  c #560705",
"1  c #46120D",
"2  c #470D14",
"3  c #441314",
"4  c #4C1313",
"5  c #48171A",
"6  c #531413",
"7  c #531C1C",
"8  c #591A19",
"9  c #56160C",
"0  c #6D1413",
"q  c #4F251C",
"w  c #471625",
"e  c #5A2525",
"r  c #502A2F",
"t  c #662926",
"y  c #792926",
"u  c #76322B",
"i  c #793635",
"p  c #69352E",
"a  c #6B2114",
"s  c #3A4D3C",
"d  c #7A463B",
"f  c #6A4D3D",
"g  c #5F433F",
"h  c #703E44",
"j  c #7A4A45",
"k  c #775654",
"l  c #6B4E45",
"z  c #506853",
"x  c #726658",
"c  c #6D7467",
"v  c #871D21",
"b  c #892628",
"n  c #94282C",
"m  c #863A36",
"M  c #963939",
"N  c #902E2F",
"B  c #A43239",
"V  c #88191F",
"C  c #87453C",
"Z  c #93453D",
"A  c #883E45",
"S  c #9D3C45",
"D  c #A53A40",
"F  c #874846",
"G  c #974A48",
"H  c #87544B",
"J  c #97534A",
"K  c #984D52",
"L  c #895754",
"P  c #9C5B5A",
"I  c #985655",
"U  c #A44848",
"Y  c #A4544C",
"T  c #A55B55",
"R  c #A45C5B",
"E  c #A95856",
"W  c #B65858",
"Q  c #A74E52",
"!  c #966459",
"~  c #89695C",
"^  c #A7635C",
"/  c #B4625D",
"(  c #B8655C",
")  c #A85C62",
"_  c #BB5F62",
"`  c #986965",
"'  c #957469",
"]  c #9B7C75",
"[  c #896F6A",
"{  c #AB6C6A",
"}  c #A76765",
"|  c #BC6563",
" . c #B76967",
".. c #A8766D",
"X. c #B8736A",
"o. c #A97874",
"O. c #BD7572",
"+. c #B87A77",
"@. c #BB6F75",
"#. c #885D64",
"$. c #C4565B",
"%. c #C5665D",
"&. c #C76A68",
"*. c #D56A69",
"=. c #C3726C",
"-. c #CC746C",
";. c #D7736D",
":. c #CC7473",
">. c #C37D7B",
",. c #CD7D7B",
"<. c #C67775",
"1. c #D47573",
"2. c #DB7473",
"3. c #D47B75",
"4. c #DC7A75",
"5. c #D47D7B",
"6. c #DC7C7B",
"7. c #DB7579",
"8. c #D06C75",
"9. c #E37C7C",
"0. c #E27876",
"q. c #E0736E",
"w. c #CA5F63",
"e. c #798470",
"r. c #8B8978",
"t. c #A68479",
"y. c #BA847A",
"u. c #CC847D",
"i. c #C3837B",
"p. c #DC837D",
"a. c #D6837D",
"s. c #E3827D",
"d. c #EA847D",
"f. c #F1827B",
"g. c #A37985",
"h. c #CB7B86",
"j. c #DB7D82",
"k. c #D57A83",
"l. c #E67B83",
"z. c #F27F84",
"x. c #7F9F87",
"c. c #929889",
"v. c #B98985",
"b. c #B9968A",
"n. c #A9969B",
"m. c #B79A97",
"M. c #A78C86",
"N. c #98AA98",
"B. c #B9A399",
"V. c #A8A897",
"C. c #B89CA5",
"Z. c #B7A6A5",
"A. c #B9B1AA",
"S. c #CC8C84",
"D. c #CD858B",
"F. c #CC8C8C",
"G. c #C68786",
"H. c #DC8383",
"J. c #DB8C8A",
"K. c #D58887",
"L. c #CB938C",
"P. c #C89689",
"I. c #DB938D",
"U. c #D4958A",
"Y. c #CC8C92",
"T. c #D78B94",
"R. c #CA9995",
"E. c #D59494",
"W. c #DA9494",
"Q. c #D49499",
"!. c #DB959B",
"~. c #D59B9C",
"^. c #D89C98",
"/. c #E38483",
"(. c #E48C8B",
"). c #E78886",
"_. c #F58889",
"`. c #E5928C",
"'. c #E68C95",
"]. c #E39D9A",
"[. c #E79798",
"{. c #F8969A",
"}. c #F78F93",
"|. c #C7A49A",
" X c #D7A59A",
".X c #D7A28D",
"XX c #E5A69C",
"oX c #F3A39E",
"OX c #E3B19F",
"+X c #DC9EA2",
"@X c #D79DA4",
"#X c #E39CA2",
"$X c #EB9BA3",
"%X c #F79AA6",
"&X c #C8ABA5",
"*X c #DDA2A3",
"=X c #D7A7A4",
"-X c #CCB6AA",
";X c #DDBAAC",
":X c #D6B5A8",
">X c #DCBEB3",
",X c #D6BDB5",
"<X c #C5ADB5",
"1X c #E3A4A5",
"2X c #ECA4A4",
"3X c #E4A4AA",
"4X c #EBA4AA",
"5X c #ECACAC",
"6X c #E6ACA9",
"7X c #F4A7A9",
"8X c #E6B7AA",
"9X c #F7A9B2",
"0X c #E5BDB4",
"qX c #ECBDB4",
"wX c #EAB7B6",
"eX c #F8B7B7",
"rX c #F0B3AF",
"tX c #DDC3B5",
"yX c #DDC4BA",
"uX c #DBCBBB",
"iX c #DBD1B9",
"pX c #D7C1B0",
"aX c #E3C2B5",
"sX c #EAC4B6",
"dX c #E5C5BB",
"fX c #EAC5BB",
"gX c #E5CABD",
"hX c #EBCABD",
"jX c #E9C9B6",
"kX c #F2CBBD",
"lX c #F5C5BB",
"zX c #E8D2BC",
"xX c #EEC9B6",
"cX c #D1B8C4",
"vX c #DECAC2",
"bX c #D7C7C5",
"nX c #D3D6CB",
"mX c #E4CAC2",
"MX c #ECCCC3",
"NX c #EAC9C5",
"BX c #F2CCC3",
"VX c #F8CAC6",
"CX c #ECD2C4",
"ZX c #EED2CB",
"AX c #ECD9C9",
"SX c #F2D2C5",
"DX c #F3D4CB",
"FX c #FBD7CB",
"GX c #FCDCD3",
"HX c #F5D9D3",
"JX c #EBDAD3",
"KX c #FBE2D6",
"LX c #E9E4DC",
"PX c #FCF1E8",
/* pixels */
"T.A ) 4X!.9XY.5X*X*XeXG.1XXX^.5X@X3X@XwX3X@XK g.Q ) W 8.j.Q N E E [.2XI.].4X*XL.+X+X+X*X3X@X@X3X$X#X$X@Xk   X #.Y.h.k.l.8.l.8.M ",
"h.S h.#X#X1X~.1X^.G.F.P E.XXW.J.Y.9X@Xh.@X9X) S ) h.) S E &. .W u ^ J.oX2XU.!.lX1X+X*X*X@X@X@X3X4X%X+X&X[ %   p D.h.k.l.l.l.7._ ",
"@.K T.!.rXQ.*X*XrX1X1XJ R O.J.rX3X3XQ.!.9X@XK K @.R )  .E Y E E X. .} u.7X2XW.!.3X*X*X+X@X3X<X3X7X%XQ.~.m.g   @ @.k.j.l./.6.5.H.",
"K ) 4X+X3XQ.1X*X*X1XXXF F F E <.9X#X@X4X9Xh.h @. .F ) O.G i J ^  .I u u +.eX5XY.1X3X+X+X3X3X3X#X$X$XY.R.&X#.& X h h.l.k.7.7.-.(.",
"h h.+X9X@X@X*X6X1X!.F.K @.=.G m ) +XeX!.@XG.K K } P P d u } F.X.^ +.{ H I +. XeX1X2X1X!.+X3X3X#X[.$X^.R.=X] q X 2 @.'.8.7.6.3.5.",
"#.3XQ.wXY.@X~.6XrX3X].T =.k.:._ i ) #XT.5Xh.F L L F F ` y.6XrXL.^.OX2X Xy.J X.eX^.3X1XQ.E.#X4X#X7X7X4X~.R.g.h o O R '.k.7.j.7.-.",
"@.wXQ.@X@XG.R.*XE.*X#XA G E &.h.K i } h.eX{ t K i j o.6XGXBX=X0XP.v.y.G.S...} G.E.4X5XW.D.!.2X2X9X#XrX3Xv.v.` o O i <.T.k.3./.1.",
"Y.wX@XY.6Xo.Q.~.^.1X4XQ  .8._ Q @.I P A Q.h.j p 7 b.VXwX0X0X0XBXlXlX=XP.P.v.{ P L.2X7XJ.D.J.{.$X%XT.9X3Xg.Q.g.: O 2 R [.H.-.6.9.",
"Y.+X@XwXv.+.eX~.5XE.eXK Q | _ | } K C F F j t 3 0X0X0X0XdXgXmXgXaXhXqX X XR.+.H +.S.2XoXJ.k.J.7X$X9X4X3Xh.Q.h.w o @ F [. .6.6.7.",
"@X~.@X3X{ g.wX X XE.eXE E | Q Q G i t 4 > e ! v.0X0XdXyXdXgXgXmXhXMXgX;X8X=XS.! X.u.].[.(.5./.$X$X4X$X$X@X!.h.h o O 8 G.,.H.l.2.",
"*XQ.3X+XL Y.1X*X1XE.eXR Q  .Q G i. XlXVXqXwXBXGX0XyXyXdXvXyXvXmXgXSXhXaXqX8X.Xy.P X.`.[.(.3.p.}.$X3X3X9X!.h.@Xg.o o o { K.1.9.2.",
"Q.Y.3XQ.F 1X+X*X4X^.7XK m ) E  .^.OXlXxXkX0X;X:XdXyXdXyXvXvXvXvXtXgXdXaXsXsX XS.J / a.`.(.1.2.(.$X4X$X9X%Xh.@Xh.# : X ! U.| 0.z.",
"+.h.4Xh.P 5X+X*X1X1XrXP i }  .W.lXaXOXaXqXgXMXdXmX>XmXvXvXvXvXvXuXtXdXtXaXsXOXXX^ ^ %.s.`.4.;.s.[.5X$X9X%Xh.h.h.e + X H W.:.s._.",
"R T.3X) +.5X3X*XE.#XrX{ m >.<.]..XpXkXkXhXaXaXtXdXmXvXvXvXvXvXvXuXuXuXgXhXkXsXrXi./ ( a.d.q.;.4.T.rX#X%X9Xh.k.@Xj     e G.(.9.*.",
"A 9X+XA !.+X5X+X~. X1XX.F E.>. XxXxXzXpX:X:XdXAXyXgXmXmXvXvXvXvXmXvXiXzXhXxXqXrXXXX.W -.d.0.q.4.>.9X[.$X9Xl.h.Y.#.  $ q } (.0.*.",
"A 9X!.t 4XY.rX].4X1XW. .F XXu.XXsXaXpXjXzXCXgX>XmXdXmXvXvXmXmXvXiXiXuXgXgXsXqXeXrX-.T %.d.s.q.4.X.4X[.'.9X'.T.D.o.+ ` j Y 6.0.z.",
"@.'.>.F +X*X!.2X$X$X$X| A K..XOXjXjXdXaXgXdXdXdXdXdXmXgXmXgXmXgXiXiXtXtXwXVXVXVX8XU.a =.p.*.f.*.6.J.[.7X7X'.D.G.v.P E.X.Y ).;.p.",
"@.'.G.F *X*X!.$X%X'.'.8.M a.u.OXjXgXfXdXgXdXdXdXdXdXfXhXhXfXMXgXiXiXvXMXVXlXD.H { y.C X.a.s.f.q.2.6.).oX$XW.D.D.h.i } | | ( %.p.",
"D.W.+.H *X3X@X#X$X{.'.8.Z u.U.OXaXgXaXgXdXfXdXgXfXdXfXgXdXhXmXgXuXuXCXZX&Xo.] b.hXFX.XJ -.d.f.*.;.1.p.[.[.!.D.D.Y.i G <.d.Y %.d.",
"2X+.I L wX+XQ.$X[.%X(.:.Z O..XOXjXaXgXfXgXdXdXfXgXdXdXfXmXhXhXhXuXzXmXR.~ #.&XPXMXZXaXd y.p.0.d.4.1.9.`.[.J.K.D.+XA G h.eXY %.p.",
"rX^ i I qX XQ.3X[.7XH.,.Z ( .XOXjXdXdXdXdXdXdXdXfXdXgXhXhXhXhXhXgXhX|.~ t.iXAX-XA.&XiXk ^ i.*.f.0.4.7.(.(.J.K.h.W.Q A =.oX( ( -.",
"XXI j ` wX@X@X3X[.7Xk.a.J t.OXOXjXdXfXfXfXdXgXfXdXdXfXmXfXhXmXhXkXv.~ y.zXKXiXA.A.e.x q d <.3.;.s.4.2./.(./.k.K.h._ G  .p.a.( u.",
"X.! o.o.=X@X3XQ..X7Xa.a.J ^ .XxXsXdXdXgXfXdXdXdXfXgXfXgXgXmXhXhX X` ` ;XLX-Xr.N.z = - & $ y.[.1.9.;.*.7././.j.j.k.| Q X.=.[.Z a.",
"J +.~.t.R.=XwXh.d.oXi.a.J ^ OXOXfXdXdXdXdXdXdXjXdXdXdXhXfXhXMXhX! y. X|.pXiXr.= - z r.r.q ^ `.&.2.&.&.1.l.l.6.l.(.&.Q  .^ XXd u.",
"d  X^...wX=X@X+X$X'.j.T.^ H a.xX;XfXdX:X&XaXhXgXDXaX>XfXMXaXdXVX}  Xy.|.|.[ e.s z x.x.N.x h ^.:.p.*.W 0._.;.s.;.j.'.G T.} +.` { ",
"G S.G.o.=X@X@XQ.'.$Xj.H.( Y OXxXhXMXSXGXGXzXhXhXhXgXdXMXMXdXgXkXS.8XP.|.B.r.r.z x.z s e.[ p @.[.1.*.W d.9.;.0.4.7.1.E O.@.G.p e ",
"^ X.+.+.=XY.3XT.$X'.k.H.( ^ u.8XFX|.t.] ] t.b.:X;XdXSXMXhXhXgXdXpXkX.X:X&Xc.A.N.z N.N.e.k k { J.3.1.U f.;.q.;.f.l.&. .I G.v.X   ",
"O.I } +.@Xh.9Xh.'.{.k.k.i.T y..Xt.' ' ] t.~ k l |.aXSXMXfXMXhXaXkXkX:XjXjXA.nXLXe.s s c Z.m.#.U.u.3.M ).*.9.*.d.).:.T F R.k     ",
"K.J R h.~.G.9Xh.j.%Xk.k.w.Q X.u. XtXHXKXPXGX-Xt.b.-XhXdXdXMXMXdXzXzXjXDXAXyXJXPXPXnXnXA.B.g.j Y.a.-.b p.-.f.q.q.6.J.G ` &X& . % ",
"J.K K +.Q.G.eXk.k.%Xl.k.l.W =..XxXhXaX|. XgXhX;Xb.&X>XdXdXMXMXgXzXiXzXAXSXmXmXJXcXN.N.c A.KXm.L U.=.b -.;.f.p.q.;.`.G o.m.  . . ",
"H.E K  .W.h.9Xj.8.%Xl.l.l.W X.XXkXBXCXMXhXmXdXpX:X&X;XdXhXmXhXCXiXiXCXgXNXHXNXbXbXZ.bXPXHXbXb.v.U.( m ( p.q.d.;.1.J.I { [   - . ",
",. .K R T.G.7XH.8.%Xz.l.j.Q ^ XXsX>XhXHXCX|.b.m.>X-X:XdXSXfXfXDXzXiXCX>XmXGXHXNXZXJXLXmXcXHXgX~ u.( Z ( ;.*.d.4.s.a.E L l r = . ",
"h.I X.^ E.+.E.{.6.2.{.0.p.-.C u.xX-XPXr.* * f x r.B.NXHXZXdXNXDXjXjXgXkXhXBXMXMXDX,XZXHXyXNXNXo... .X.M a.d.4.s.s.s.E J R.3 5 % ",
"G.I { o.y.+.J.`.7.4.{.s.p.i.u ! jX:Xf - * x r.[ ] M.<XyXNXNXVXVXhXjXkXkXkXBXMXSXDX>XNXHXyXZXNXM...} O.Y %.d.0.s.s.s.W J E.4 5 % ",
"G.P ^ E.{ +.J.J.7.7.}.q.p.p.C d y.r.  f :XAXAXPX-X-XcXyXNXNXVXNXhXxXkXhXkXhXBXMXDXyXNXZXbXZXZXm.} ^ i.-.Y s.p.;.4./.( K U.7 7 + ",
"K.R P 9X! >.E.H.7.9.f.*.a.d.^ Z ! f q P.KXiXB.uXKXJXNXNXNXNXNX0XhXxXkXkXMXBXBXCXDXmXCXZXdXZXZX:X! I S.`.Z ;.s.;.4./.( T ^.4 5 + ",
"K. .K eXR O.K.5.&.q._.l.2.).=.I y.t.FXzXgXzXAXpXzXuXmXmXNXNXVXBXhXxXkXhXkXBXMXSXDXMXMXCXmXZXDXfXL H I.oXZ ;.d.p.2./.| T E.4 5 1 ",
"k.=.K eX{  .H.k.W *._.z.9.s.-.J t.H FXpX:XjXKXzXpXuXmXMXmXNXNXFXlXkXhXkXBXhXBXMXBXMXNXNXZXZXZXSXH J OXoXY =.d.;.3.H.W T U.: 3 $ ",
"8.,.K 9X>.} h.j.$.w.l.z.0.4.a.Y y.t.i.zXFX:X-XzXCXCXCXZXMXmXmXBXhXhXkXkXhXBXMXMXNXMXZXmXZXmXNXDX~ ! eXXXT ( s.p.2.H.| J S.: 3 3 ",
"8.j.U $XK.) ,.j.w.$.*.z.0.0.).( C u.! OXxXhXaXCXgXdXdXgXhXMXNXhXhXxXhXkXkXhXBXSXdXZXNXmXZXNXmXGX~ ^ lX`.=.W p.;.1.H.W G G.; 1 3 ",
"&.T.Q @.eXR J.:.}.v {.*.q.9.).1.J y.! OXxXxXxXxXgXCXCXhXdX>XtXpXsXaXaXsXBXSXSXMXSXHXZXdXdXZXZXHXy.OX8Xi..XT p.a.4.6.E T } o 7 + ",
"W k._  .eXO. .,.`.B w.f._.*./.a.Y y.y.J zXxXxXzXjXzXCXAXAXtXB.b.BXP.' ` b.dXMXdX:X>XNXZXJXZXmX,XOXOXxXXX( Z d.-.3.p.E / R O 7 : ",
"S k.8.K 9XW.F K.H.W V _.}.w.s.3.i.Y a.C OXxXxXxXzXxXzXzXDXgX|.t.t.y. X:X:X8XSXKXGXHXNXdXmXZXHXNXjXxXxX8XC Z d.%.1.H.Y  .F : 3 3 ",
"S k.D.t S.lXF K.d.$.0 q._.&.s.3.p.Z i.OXC xXFXxXFXzXtXjXCXCXtX|.|.|.b.P.;XhXBXhXDXyX|.M.m.,XMXMXjXxX8Xi.Z Z p.a.1.p.G =.t 6 : 3 ",
"A k.H.6 ^ GX^ X.p.( Z Y f.%.p.a.p.y.Y xXa t.xXFXkXxXjXzXzXCXCXCXKXxX:X:X;X8X:X&X|.|.|.&X,XNXZXgXjXxX.XH i.Z ;.p.3.3.U <.< 7 : 3 ",
"N 8.<.i L FXU.I d.Y %.U Y p.p.a.a.f.Z Y C a i.KXaXjXzXzXzXgXzXCXpXxXSXxX;X&X:X0XaXmXMXZXHXKXHXmXCXjXy.C OXJ %.p.p.&.Q X.; 8 : 4 ",
"S _ R { d  XlXI a.Y a.p.B f.a.a.i.f.( a ! a d u.sXxXSXCXCXgXdXgXKXOXt...|.jXhXdXDXDXZXyXyXmXyX,XiX.X' ' OX^ X.p.p.&.E } ; 6 2 3 ",
"Q ) F S.p ! KX..y.y.%.oXN a.a.a.d.%.a.m u a q f kXkXzXCXgXzXCXSXxXjXpXjXhXSXMXgXdXMXDXZXZXZXDXBX;Xt.H u.a.( &.a.p.W | E O 4 3 3 ",
") K F o.j y.0X=XH y.X.eX=.Z a.`./._.7.G y y t , p v.FXKXfX0XNXDXdXdXNXDXNXpXgXAXZXgXgXdX0XVXFXqXu.H U.u.I.( U (.a.G ,.F o e $ % ",
") i { { +.wXMXBXt.! y.kXu.T  .p.2.7._.&.b y i O O p ]  XBXFXDXfXVXDXHXHXJXvXyXuX,XuXGXKXNXVXVXwXI X.].u.(.&.&.a.a.G i.i o 5 3 $ ",
") e { ` 3XFXqXFX Xd ..kXU.=.T 3.9.w._.}.G y t ; O @ q j M.=XdXBXNXNXfXdXvXZXJXJXKXmXmXhX0XwX&X{ F W.].`.oX( ( a.=.J ,.8 3 $ w % ",
"{ p ) { VXFX=XBXsXH H rXXXK.( Y }.w.8.{.:.a < 8 t 1 + 1 q p ` R.wXNXNXmXmXZXNXyXpX-XmXGXGXdXo.r } S.+.a.7X( Z }.( E >., 7 @ q % ",
"g.) L @XVXVX8XVXxXt.t U.].I.a.b 7.z.8.l._.G , 6 9 1 1 5 : o 1 p L { R.,XNXGXZXmXHXHXHX,XM.[ ~ j +.} R J a.,.Z oXY  .O.O 7 + 5 % ",
"o.h.` eXVXVXkXBX8XP.t y.`.J.5.0 B z.z.8.'.5.y ; 9 > > 6 7 1 O O o 2 r j ` g.&X,XmXA.M.x l x [ ' L.G.i.C T `.Z K.G u.X.o 7 3 3 $ ",
"o.` R.VXqXBXkXVX8X.XC +.`.(.Y v V $.z.l.7.`.| , 8 8 > : 4 e 8 4 e 2 @ ; o @ r [ l l k ] m.<Xm.c R. X^.=.T ,.Y <.G [.^ O 7 5 % $ ",
"h.j FXBXfXBXhXBX:X X} O.`.J.v N n 0 *.{.&.5.J.i ; 9 8 > : > 6 : 6 ; 2 e 5 @ e L &Xm.Z.Z.Z.Z.n.g.o.G.y.2XX.T E a.M 7X^ O 3 w @ 5 ",
"j ~.BXfXhXFXBXkX8XP.S.<.`.U n v b n B w././.K.>.6 ; 8 8 ; 2 e > > > 2 > 2 2 5 3 C.C.C.C.C.C.C.Z.k 6X..U.a.U.Z ( / I.C ; 3 5 3 % ",
"' =XNXwXfXMXhXhXlXL.U.J.H.G n b n b b M | (.'.>.Q 6 O 6 8 6 < 6 > 2 6 > 6 4 5 5 h g.<XC.n.Z.A.n.` R.S.S..Xu.Z T =.I.C O 6 5 3 $ ",
"=XdXBXdXhXMXjXVXsXP.S.[.W N b n n n V 0 N =.T.S.G.i ; 2 8 O o t > 6 4 2 6 5 5 5 . k C.<XA.<XA.C.t.t. Xi..Xu.Z J u.I.i ; 7 : + $ ",
"fXMXhXmXDXhXdXFXqXS.S.oXM n V n b n b < < y  .S.L.} 8 O 6 > O 8 6 2 4 4 4 4 5 w w w #.<XcXC.n.C.t.! P.P.S.I.C Z I.I.u ; 7 2 & 3 ",
"fXNXtXfXHXgX0XSX8XP.S.[.b v n n N b y 0 < , y ! G.L.F O > t 1 o 3 1 4 1 2 6 4 w w # w [ C.C.n.n.t.L ...Xi.XXy Z `.[.u O 7 + @ 3 ",
"dXNXmXMXGXSXdXkX:X^.J.=.b b B B B 0 < 0 0 , , t F L.R.i : : 4 > 1 1 1 2 2 w 6 w w w # w g.<XcXC.t.~ L P.y.OXu T U.XXi ; 7 2 # # ",
">XCXMXdXAXCXfXkX^. XK.M v n B n n 0 < < 9 9 , 1 : H v.o.e o , e + + + : 2 2 2 2 # w w w r g.Z.A.b.t.j t.U.u.C X.u.XXC O 4 2 $ $ ",
"&XyXpX&X,XtX:X;Xb.U.h.y v V B v < 0 < < , 9 4 9 3 o p o.L 7 1 1 + + 2 : 2 2 2 2 # w w . . r g.A.B.y.d ! OXX.J <.i.oXG O 2 3 2 + "
};
